<?xml version="1.0" encoding="utf-8"?>
<!-- Generator: Adobe Illustrator 16.0.3, SVG Export Plug-In . SVG Version: 6.00 Build 0)  -->
<!DOCTYPE svg PUBLIC "-//W3C//DTD SVG 1.1//EN" "http://www.w3.org/Graphics/SVG/1.1/DTD/svg11.dtd">
<svg version="1.1" id="Layer_1" xmlns="http://www.w3.org/2000/svg" xmlns:xlink="http://www.w3.org/1999/xlink" x="0px" y="0px"
	 width="663.923px" height="538.125px" viewBox="0 0 663.923 538.125" enable-background="new 0 0 663.923 538.125"
	 xml:space="preserve">
<g>
	<path fill="#F0F0E4" d="M643.565,44.139c-0.205-0.214-22.863-23.271-78.076-32.818l-0.104-0.02
		c-7.468-1.383-15.517-2.654-23.916-3.779C504.2,2.53,456.842,0,400.713,0c-3.154,0-6.379,0.008-9.584,0.024
		c-106.78,0.53-218.687,9.64-275.89,15.022l-13.925,1.311l10.889,57.133l-0.002,0.104c-0.01,0.484-0.007,1.033,0.01,1.662
		l0.004,0.139l-15.534,60.826l18.401-2.17c6.72-0.791,13.644-1.584,20.579-2.354l0.275,1.98c-2.53,0.422-5.043,0.851-7.522,1.293
		c-32.675,5.83-64.801,15.954-79.649,22.941C25.268,168.97,11.279,187.96,11.141,188.15c-3.949,6.168-6.531,12.881-7.643,19.904
		l-0.15,0.951l-0.015,0.434l-3.312,99.736c-0.366,12.09,3.966,22.849,12.527,31.111c13.005,12.547,36.438,19.885,71.637,22.432
		c10.419,0.756,21.644,1.123,34.314,1.123c16.365,0,35.322-0.629,57.955-1.923l1.209-0.07l0.322,0.38
		c1.413,1.664,3.113,3.214,5.054,4.605c6.18,4.429,13.108,6.674,20.591,6.674c16.119,0,29.083-10.325,31.519-12.395l0.794-0.675
		l0.021,0.026l19.423-15.777l21.711,6.182c45.273,12.903,72.339,20.696,76.212,21.943c1.628,0.58,3.877,3.204,5.075,4.718
		l1.633,2.062l-29.455-5.189c-0.527-0.094-1.068-0.142-1.61-0.142c-4.405,0-8.215,3.14-9.062,7.465
		c-0.064,0.328-0.109,0.656-0.137,0.984l-0.091,1.09l-7.958-1.386c-5.016-0.859-9.728,2.499-10.659,7.365
		c-0.941,4.927,2.288,9.765,7.198,10.783l37.611,7.821l-46.738,61.514l-0.601-0.106l-102.621-18.079
		c-0.526-0.094-1.067-0.141-1.61-0.141c-4.401,0-8.212,3.138-9.061,7.461c-0.345,1.764-0.163,3.581,0.526,5.256l0.69,1.677
		l-36.72-6.395c-0.525-0.091-1.058-0.137-1.582-0.137c-4.431,0-8.248,3.156-9.078,7.506c-0.941,4.926,2.288,9.762,7.198,10.779
		l131.445,27.333l-0.172,0.959c-0.872,4.837-0.603,9.481,0.824,14.197l0.11,0.361l0.147,0.347
		c4.711,11.097,13.853,17.208,25.74,17.208c16.087,0,34.579-11.02,45.526-20.456c1.024-0.896,126.295-111.871,149.62-133.635
		l0.293-0.272l0.4,0.004c2.036,0.022,4.062,0.033,6.051,0.033c23.046,0,40.802-1.437,51.639-2.643
		c15.228-1.689,34.628-6.441,51.896-12.71c27.349-9.93,32.952-17.078,32.952-24.757c0-12.663-16.688-24.508-59.522-42.247
		l-0.384-0.159c-2.072-0.857-4.09-1.694-6.029-2.502c-0.97-0.405-2.379-0.96-4.189-1.649l-1.192-0.454l46.392-67.008
		c7.514-11.875,11.827-21.686,13.188-29.992l0.073-0.444l0.382-0.24c13.225-8.317,20.121-18.81,20.497-31.187l2.864-94.543
		C655.134,62.492,651.351,52.691,643.565,44.139z M205.851,308.896l0.791-26.127l1.645,1.689c3.629,3.728,7.462,7.33,11.393,10.71
		l0.87,0.748L205.851,308.896z M218.203,259.703c-5.251-6.227-8.639-11.219-10.191-13.64l-0.886-1.382l1.635-0.153
		c3.135-0.293,6.274-0.583,9.448-0.86l1.882-0.164l-0.922,1.648c-1.243,2.222-1.516,4.711-0.789,7.197l2.55,10.588L218.203,259.703z
		 M337.474,236.172c8.143-0.394,16.275-0.775,24.382-1.154l1.556-0.072l-0.581,1.445c-0.213,0.529-0.378,1.086-0.489,1.653
		c-0.13,0.663-0.187,1.34-0.167,2.011l0.033,1.224l-15.466-2.694c-2.254-0.393-4.636,0.082-6.575,1.33l-0.694,0.445l-0.57-0.598
		c-0.61-0.639-1.281-1.246-1.995-1.803l-2.123-1.658L337.474,236.172z M437.136,278.237c-16.438,2.066-30.734,5.812-42.49,11.131
		l-0.201,0.091l-0.222-0.002c-14.916-0.158-35.344-0.375-56.296-0.375c-6.433,0-12.587,0.02-18.538,0.059l-2.491,0.017
		l13.205-12.806c2.505-2.087,10.687-9.445,13.172-18.658l0.246-0.91l99.572,20.705L437.136,278.237z M489.744,251.293
		l-99.812-17.586l8.944-0.43c18.666-0.897,43.042-2.117,66.044-3.6l1.164-0.074l-0.104,1.162c-0.413,4.635,2.704,8.872,7.25,9.854
		l22.181,4.792L489.744,251.293z"/>
	<g>
		<g>
			<path fill="#02A8B8" d="M206.207,358.578c-3.018,0-5.992-0.447-8.839-1.328c-0.805-0.304-1.38-0.827-1.647-1.484
				c-0.084-0.2-0.135-0.425-0.149-0.661c-0.127-0.475-0.034-1.027,0.286-1.507c0.238-0.357,0.729-0.783,1.714-0.783
				c0.598,0,1.116,0.161,1.138,0.168c2.99,1.139,6.086,1.709,9.251,1.709c3.416,0,6.745-0.663,9.896-1.972
				c0.226-0.107,0.483-0.166,0.743-0.166c0.374,0,0.732,0.126,1.015,0.356c0.25,0.148,0.432,0.328,0.556,0.548
				c0.18,0.321,0.212,0.702,0.092,1.073c-0.147,0.447-0.497,0.824-0.96,1.036C215.32,357.535,210.787,358.578,206.207,358.578z"/>
			<path fill="#FFFFFF" d="M218.6,353.054c0.276,0,0.532,0.097,0.727,0.268c0.165,0.093,0.312,0.212,0.409,0.383
				c0.141,0.251,0.106,0.504,0.052,0.673c-0.103,0.312-0.354,0.581-0.693,0.736c-3.929,1.94-8.388,2.965-12.888,2.965h-0.001
				c-2.969,0-5.895-0.44-8.69-1.306c-0.646-0.244-1.117-0.667-1.332-1.195c-0.07-0.167-0.104-0.336-0.113-0.502
				c-0.084-0.336-0.088-0.764,0.203-1.2c0.296-0.443,0.824-0.561,1.298-0.561c0.527,0,0.988,0.145,0.988,0.145
				c0.007,0.002,0.014,0.002,0.021,0.004c3.002,1.148,6.156,1.729,9.381,1.729c3.482,0,6.875-0.676,10.088-2.01
				C218.234,353.094,218.421,353.054,218.6,353.054 M218.6,352.054L218.6,352.054c-0.334,0-0.664,0.075-0.978,0.224
				c-3.046,1.264-6.312,1.914-9.661,1.914c-3.104,0-6.14-0.56-9.023-1.662l-0.041-0.016l-0.042-0.012l-0.066-0.02l-0.011-0.001
				c-0.162-0.046-0.65-0.167-1.207-0.167c-1.206,0-1.824,0.547-2.13,1.006c-0.383,0.574-0.507,1.231-0.362,1.907
				c0.024,0.259,0.086,0.507,0.183,0.737c0.316,0.776,0.992,1.399,1.9,1.743l0.028,0.011l0.029,0.009
				c2.896,0.896,5.919,1.351,8.986,1.351c4.657,0,9.268-1.061,13.332-3.068c0.563-0.258,1.01-0.743,1.201-1.32
				c0.165-0.51,0.118-1.031-0.13-1.475c-0.162-0.287-0.399-0.526-0.706-0.715C219.535,352.211,219.076,352.054,218.6,352.054
				L218.6,352.054z"/>
		</g>
		<g>
			<path fill="#02A8B8" d="M198.796,342.29c-0.606,0-1.187-0.262-1.592-0.718c-0.378-0.423-0.568-0.971-0.533-1.54
				c0.031-0.562,0.284-1.084,0.711-1.466l19.788-19.028c0.555-0.496,1.27-0.763,2.027-0.763c0.886,0,1.715,0.361,2.274,0.991
				c0.537,0.603,0.806,1.38,0.759,2.188c-0.047,0.809-0.405,1.549-1.008,2.085l-21.03,17.725
				C199.822,342.1,199.321,342.29,198.796,342.29z"/>
			<path fill="#FFFFFF" d="M219.197,319.275c0.711,0,1.419,0.281,1.901,0.823c0.926,1.041,0.833,2.642-0.207,3.566l-21.021,17.717
				c-0.289,0.261-0.674,0.408-1.074,0.408c-0.465,0-0.909-0.202-1.218-0.55c-0.29-0.324-0.435-0.744-0.408-1.178
				c0.024-0.436,0.22-0.832,0.546-1.124l19.801-19.04C217.987,319.479,218.593,319.275,219.197,319.275 M219.197,318.275
				L219.197,318.275c-0.88,0-1.713,0.312-2.346,0.877l-19.828,19.065c-0.5,0.447-0.812,1.091-0.851,1.789
				c-0.042,0.699,0.192,1.376,0.662,1.9c0.497,0.56,1.213,0.883,1.963,0.883c0.648,0,1.268-0.236,1.744-0.666l20.995-17.694
				c0.723-0.643,1.14-1.505,1.194-2.446s-0.26-1.847-0.885-2.55C221.191,318.698,220.226,318.275,219.197,318.275L219.197,318.275z"
				/>
		</g>
		<g>
			<path fill="#02A8B8" d="M539.07,293.428c-0.294,0-0.591-0.029-0.882-0.088l-41.11-9.411c-1.313-0.285-1.525-1.213-1.555-1.599
				c-0.017-0.204,0.007-0.353,0.015-0.401c0.144-0.702,0.734-1.386,1.742-1.386c0.122,0,0.27,0.01,0.432,0.036l41.533,6.247
				c1.836,0.347,3.611,2.062,3.253,3.971C542.194,292.372,540.816,293.428,539.07,293.428z"/>
			<path fill="#FFFFFF" d="M497.28,281.043c0.1,0,0.22,0.008,0.352,0.029l41.539,6.248c1.589,0.301,3.14,1.764,2.836,3.385
				c-0.257,1.33-1.437,2.223-2.937,2.223c-0.259,0-0.521-0.025-0.784-0.078l-41.097-9.408c-0.954-0.207-1.142-0.811-1.168-1.15
				c-0.012-0.148,0.006-0.256,0.011-0.287C496.124,281.557,496.503,281.043,497.28,281.043 M497.28,280.043
				c-1.289,0-2.048,0.884-2.228,1.76c-0.035,0.219-0.042,0.393-0.028,0.567c0.08,1.034,0.811,1.801,1.953,2.049l41.086,9.405
				c0.35,0.07,0.68,0.104,1.007,0.104c1.993,0,3.568-1.219,3.919-3.033c0.419-2.237-1.54-4.161-3.633-4.557l-41.576-6.255
				C497.62,280.058,497.448,280.043,497.28,280.043L497.28,280.043z"/>
		</g>
		<g>
			<path fill="#02A8B8" d="M463.209,327.742c-1.978,0-3.639-0.397-4.68-1.118l-0.087-0.055c-0.812-0.456-1.388-1.25-1.689-2.347
				c-1.459-5.301,2.532-16.766,4.121-19.6l0.071-0.106c0.36-0.418,1.387-1.74,0.848-3.016c-0.727-1.724-3.617-1.923-5.728-1.923
				c-0.396,0-0.814,0.008-1.265,0.025c-15.833,0.655-21.177,1.7-21.177,4.141l-0.001,0.219c-0.007,0.562-0.017,1.31,0.255,2.363
				c2.629,10.216,1.738,16.176-2.648,17.714c-0.632,0.221-8.156,0.868-12.096,0.868c-6.533,0-14.286-0.225-20.232-0.587
				l-0.563-0.102c-1.302-0.244-3.269-0.614-3.308-2.438c-0.011-0.532,0.187-1.02,0.57-1.411c0.996-1.017,2.923-1.096,3.489-1.096
				c0.235,0,0.745,0.022,1.473,0.056c1.716,0.083,4.856,0.233,8.416,0.233c14.802,0,18.224-2.561,18.946-4.087
				c0.718-1.51-0.261-5.115-0.679-6.655c-0.641-2.354-1.881-3.4-4.025-3.4c-1.586,0-3.56,0.555-6.292,1.322
				c-2.169,0.612-4.585,1.294-7.474,1.901l-0.545,0.115c-1.895,0.405-4.253,0.911-6.197,0.911c-1.33,0-3.625-0.188-4.043-1.45
				c-0.234-0.651-0.334-1.891,1.668-2.75c24.125-11.318,55.888-12.198,65.048-12.198c4.543,0,7.707,0.181,9.153,0.349
				c2.336,0.267,12.404,3.521,18.961,14.584l0.129,0.201c0.539,0.836,1.957,3.033,0.298,4.532
				c-2.681,2.426-16.746,14.539-30.43,14.801l-0.286,0.002H463.209z"/>
			<path fill="#FFFFFF" d="M465.386,293.773c4.513,0,7.656,0.178,9.096,0.346c2.283,0.26,12.139,3.459,18.589,14.342
				c0.035,0.059,0.083,0.133,0.141,0.221c0.517,0.801,1.728,2.67,0.381,3.887c-2.659,2.406-16.613,14.414-30.104,14.672
				l-0.278,0.002c-1.879,0-3.439-0.367-4.395-1.029l-0.105-0.066c-0.719-0.404-1.206-1.082-1.474-2.057
				c-1.425-5.174,2.512-16.434,4.075-19.223l0.045-0.064c0.375-0.43,1.548-1.959,0.898-3.496c-0.844-2-3.937-2.229-6.188-2.229
				c-0.402,0-0.827,0.008-1.284,0.025c-16.597,0.688-21.657,1.773-21.657,4.641l-0.001,0.217c-0.007,0.545-0.02,1.363,0.271,2.49
				c2.554,9.922,1.77,15.68-2.329,17.117c-0.498,0.174-7.851,0.84-11.931,0.84c-6.526,0-14.267-0.225-20.202-0.586l-0.502-0.094
				c-1.278-0.24-2.869-0.541-2.899-1.957c-0.008-0.395,0.139-0.756,0.428-1.051c0.882-0.9,2.765-0.945,3.132-0.945
				c0.234,0,0.747,0.023,1.478,0.057c1.83,0.088,4.893,0.232,8.411,0.232c11.336,0,18.044-1.512,19.398-4.373
				c0.798-1.68-0.182-5.279-0.651-7.01c-0.697-2.564-2.128-3.76-4.505-3.76c-1.662,0-3.678,0.568-6.466,1.352
				c-2.146,0.605-4.534,1.279-7.402,1.883l-0.546,0.115c-1.878,0.402-4.218,0.9-6.094,0.9c-0.536,0-3.219-0.053-3.568-1.107
				c-0.321-0.895,0.151-1.602,1.391-2.133C424.578,294.652,456.251,293.773,465.386,293.773 M465.386,292.773
				c-9.187,0-41.042,0.884-65.275,12.253c-2.437,1.044-2.146,2.709-1.907,3.376c0.483,1.459,2.72,1.77,4.51,1.77
				c1.997,0,4.385-0.512,6.303-0.923l0.543-0.114c2.904-0.611,5.329-1.295,7.468-1.898c2.731-0.768,4.678-1.314,6.194-1.314
				c1.905,0,2.964,0.904,3.54,3.022c0.371,1.367,1.351,4.976,0.713,6.318c-0.542,1.144-3.427,3.802-18.495,3.802
				c-3.548,0-6.68-0.15-8.363-0.231c-0.776-0.035-1.271-0.058-1.525-0.058c-0.616,0-2.715,0.09-3.846,1.246
				c-0.48,0.489-0.727,1.102-0.714,1.77c0.048,2.231,2.343,2.662,3.715,2.92l0.503,0.095l0.061,0.011l0.062,0.004
				c5.955,0.362,13.72,0.588,20.263,0.588c3.854,0,11.516-0.636,12.261-0.896c4.675-1.64,5.673-7.8,2.968-18.311
				c-0.255-0.989-0.246-1.698-0.239-2.216l0.001-0.237c0-2.315,8.274-3.132,20.698-3.646c0.44-0.017,0.853-0.024,1.243-0.024
				c1.134,0,4.585,0,5.267,1.617c0.438,1.034-0.531,2.223-0.73,2.45l-0.035,0.041l-0.031,0.044l-0.045,0.064l-0.028,0.041
				l-0.023,0.042c-1.667,2.973-5.688,14.458-4.167,19.978c0.338,1.229,0.992,2.126,1.947,2.662l0.062,0.042
				c1.087,0.754,2.85,1.183,4.928,1.183l0.285-0.002c13.875-0.265,28.064-12.483,30.769-14.931c1.974-1.783,0.332-4.328-0.208-5.164
				c-0.057-0.087-0.098-0.149-0.127-0.199c-6.66-11.236-16.943-14.549-19.333-14.82
				C473.137,292.955,469.952,292.773,465.386,292.773L465.386,292.773z"/>
		</g>
		<g>
			<path fill="#02A8B8" d="M300.934,278.68c-2.422,0-5.127-0.503-8.444-1.259c-0.979-0.223-1.843-0.361-2.643-0.425l-3.838-1.001
				c-1.805-0.394-2.409-1.346-2.594-2.075c-0.761-3.021,4.353-7.721,10.119-12.679l0.16-0.139l4.719-3.923
				c5.228-4.396,14.363-9.07,20.991-9.07c2.412,0,7.327,0.89,8.662,4.26c1.376,3.469-1.329,8.429-8.038,14.744l-10.36,8.401
				C306.976,277.703,304.282,278.68,300.934,278.68z"/>
			<path fill="#FFFFFF" d="M319.404,248.608c2.293,0,6.961,0.824,8.197,3.944c1.293,3.26-1.37,8.035-7.916,14.195l-10.332,8.377
				c-2.596,2.111-5.193,3.055-8.419,3.055c-2.375,0-5.049-0.498-8.333-1.246c-1.002-0.229-1.891-0.371-2.715-0.436l-3.75-0.986
				c-1.262-0.275-2.018-0.854-2.236-1.715c-0.748-2.97,5.696-8.511,9.961-12.178l0.161-0.14l4.711-3.917
				C303.893,253.224,312.892,248.608,319.404,248.608 M319.404,247.608c-6.746,0-16.017,4.734-21.314,9.188l-4.707,3.914
				l-0.177,0.153c-6.112,5.256-11.106,9.877-10.275,13.178c0.221,0.868,0.918,1.995,2.993,2.447l3.708,0.977l0.087,0.023
				l0.089,0.007c0.775,0.061,1.616,0.196,2.57,0.413c3.35,0.764,6.087,1.271,8.556,1.271c3.471,0,6.262-1.012,9.05-3.279
				l10.331-8.375l0.028-0.023l0.027-0.025c6.971-6.56,9.64-11.562,8.16-15.292C327.099,248.572,322.121,247.608,319.404,247.608
				L319.404,247.608z"/>
		</g>
		<g>
			<path fill="#02A8B8" d="M245.605,292.344l25.459-1.735l0.162,0.171c0.871,0.919,2.003,1.85,2.8,2.469l1.101,0.854l-1.393,0.04
				c-9.839,0.283-17.404,0.644-27.016,1.122l-0.416,0.021L245.605,292.344z"/>
			<path fill="#FFFFFF" d="M270.864,291.123c0.896,0.945,2.069,1.908,2.856,2.52c-9.774,0.281-17.145,0.631-27.026,1.123
				l-0.466-1.963L270.864,291.123 M271.266,290.094l-0.471,0.031l-24.636,1.68l-1.177,0.081l0.273,1.147l0.466,1.963l0.191,0.81
				l0.831-0.041c9.609-0.479,17.17-0.84,27.005-1.122l2.785-0.08l-2.201-1.71c-0.641-0.498-1.851-1.475-2.744-2.417L271.266,290.094
				L271.266,290.094z"/>
		</g>
		<g>
			<path fill="#02A8B8" d="M237.533,260.191c0,0-0.382-1.199,0.297-2.134c0.512-0.706,1.482-1.063,2.883-1.063
				c2.22,0.005,7.939,6.506,16.41,16.425l0.093,0.109c3.286,3.846,6.684,7.822,9.506,10.822l0.725,0.771l-22.907,1.54
				L237.533,260.191z"/>
			<path fill="#FFFFFF" d="M240.713,257.494c2.156,0.005,9.531,8.641,16.037,16.258c3.324,3.891,6.753,7.906,9.608,10.941
				l-21.44,1.441l-6.902-26.071c-0.003-0.009-0.311-0.983,0.219-1.713C238.647,257.783,239.476,257.494,240.713,257.494
				 M240.715,256.494L240.715,256.494h-0.002c-1.57,0-2.676,0.427-3.288,1.269c-0.759,1.046-0.449,2.308-0.373,2.57l6.898,26.058
				l0.211,0.797l0.823-0.055l21.44-1.441l2.111-0.143l-1.45-1.541c-2.814-2.991-6.208-6.963-9.49-10.804l-0.086-0.102
				C247.509,261.392,242.967,256.499,240.715,256.494L240.715,256.494z"/>
		</g>
		<g>
			<path fill="#02A8B8" d="M400.871,419.982c-0.295,0-0.587-0.028-0.869-0.084l-27.173-7.047c-1.166-0.251-1.644-1.272-1.491-2.104
				c0.144-0.729,0.756-1.458,1.803-1.458c0.106,0,0.234,0.01,0.372,0.032l27.718,3.23c1.188,0.226,2.214,0.89,2.85,1.828
				c0.54,0.79,0.743,1.72,0.571,2.616C404.315,418.754,402.76,419.982,400.871,419.982z"/>
			<path fill="#FFFFFF" d="M373.14,409.789c0.083,0,0.184,0.008,0.291,0.025l27.741,3.234c1.023,0.195,1.931,0.781,2.493,1.611
				c0.466,0.682,0.641,1.479,0.494,2.242c-0.29,1.52-1.643,2.58-3.289,2.58c-0.256,0-0.515-0.023-0.772-0.074l-27.144-7.041
				c-0.889-0.191-1.238-0.914-1.125-1.529C371.932,410.316,372.376,409.789,373.14,409.789 M373.14,408.789
				c-1.135,0-2.077,0.764-2.292,1.855c-0.197,1.075,0.4,2.378,1.896,2.7l27.103,7.031l0.028,0.008l0.029,0.006
				c0.313,0.062,0.639,0.093,0.966,0.093c2.134,0,3.89-1.396,4.271-3.393c0.197-1.027-0.034-2.091-0.651-2.994
				c-0.707-1.044-1.85-1.784-3.131-2.029l-0.035-0.007l-0.037-0.004l-27.74-3.234C373.439,408.803,373.282,408.789,373.14,408.789
				L373.14,408.789z"/>
		</g>
		<g>
			<path fill="#02A8B8" d="M392.855,385.877c-1.878,0-4.479-0.226-5.381-2.18c-1.435-3.105-3.256-6.463-4.862-9.426
				c-4.507-8.3-6.258-11.741-4.29-13.573c0.821-0.762,1.796-1.147,2.896-1.147c0.685,0,1.763,0.166,3.009,0.959
				c19.898,8.58,61.441,11.168,65.275,11.168h0.693c1.797,0.014,3.096,1.079,3.163,2.591c0.067,1.543-1.145,2.716-2.947,2.854
				c-13.178,0.986-26.558,3.581-37.31,5.666C404.183,384.517,397.163,385.877,392.855,385.877z"/>
			<path fill="#FFFFFF" d="M381.217,360.051c0.616,0,1.595,0.152,2.74,0.881c20.05,8.652,61.701,11.246,65.544,11.246h0.693
				c1.538,0.012,2.607,0.861,2.663,2.113c0.056,1.258-0.966,2.217-2.485,2.332c-13.196,0.988-26.599,3.586-37.366,5.674
				c-8.878,1.721-15.887,3.08-20.151,3.08c-1.742,0-4.146-0.195-4.927-1.889c-1.44-3.119-3.266-6.484-4.877-9.455
				c-4.266-7.855-6.079-11.395-4.389-12.969C379.387,360.393,380.246,360.051,381.217,360.051 M381.217,359.051
				c-1.23,0-2.318,0.431-3.234,1.28c-2.331,2.171-0.152,6.184,4.189,14.18c1.604,2.955,3.42,6.305,4.848,9.396
				c1.021,2.214,3.819,2.47,5.835,2.47c4.355,0,11.396-1.364,20.312-3.093c10.769-2.088,24.133-4.68,37.281-5.664
				c2.055-0.155,3.488-1.574,3.409-3.373c-0.079-1.792-1.583-3.054-3.654-3.069h-0.701c-3.819,0-45.154-2.571-65.077-11.134
				C383.106,359.225,381.956,359.051,381.217,359.051L381.217,359.051z"/>
		</g>
		<g>
			<path fill="#02A8B8" d="M386.745,434.391c-0.266,0-0.532-0.025-0.791-0.075l-22.963-6.245c-0.247-0.053-0.494-0.159-0.708-0.309
				c-0.579-0.396-0.874-1.098-0.749-1.783c0.169-0.865,0.909-1.465,1.802-1.465c0.099,0,0.212,0.007,0.332,0.024l23.513,2.43
				c1.134,0.214,2.077,0.832,2.697,1.745c0.552,0.813,0.76,1.764,0.584,2.677C390.126,433.156,388.598,434.391,386.745,434.391z"/>
			<path fill="#FFFFFF" d="M363.335,425.014c0.077,0,0.166,0.006,0.261,0.02l23.532,2.432c0.963,0.184,1.79,0.727,2.335,1.529
				c0.478,0.703,0.657,1.52,0.507,2.301c-0.29,1.529-1.616,2.596-3.226,2.596c-0.229,0-0.464-0.021-0.696-0.066l-22.927-6.236
				c-0.207-0.045-0.394-0.125-0.553-0.236c-0.419-0.287-0.633-0.793-0.543-1.283C362.147,425.447,362.686,425.014,363.335,425.014
				 M363.335,424.014c-1.135,0-2.077,0.767-2.291,1.863c-0.163,0.891,0.214,1.789,0.959,2.3c0.255,0.178,0.552,0.308,0.878,0.382
				l22.904,6.23l0.036,0.01l0.037,0.007c0.29,0.057,0.588,0.085,0.886,0.085c2.097,0,3.827-1.402,4.208-3.409
				c0.2-1.041-0.034-2.125-0.662-3.049c-0.695-1.024-1.752-1.717-2.975-1.95l-0.042-0.008l-0.043-0.005l-23.532-2.432
				C363.592,424.022,363.455,424.014,363.335,424.014L363.335,424.014z"/>
		</g>
		<g>
			<path fill="#02A8B8" d="M372.63,448.799c-0.247,0-0.491-0.023-0.727-0.07l-18.756-5.443c-0.972-0.222-1.594-1.121-1.418-2.084
				l0.026-0.097c0.125-0.535,0.503-0.986,1.029-1.214c0.246-0.106,0.488-0.157,0.741-0.157c0.1,0,0.203,0.008,0.312,0.024
				l19.281,1.625c1.074,0.201,1.96,0.782,2.548,1.645c0.569,0.838,0.783,1.813,0.604,2.747
				C375.936,447.555,374.438,448.799,372.63,448.799z"/>
			<path fill="#FFFFFF" d="M353.527,440.233c0.075,0,0.154,0.006,0.237,0.019l19.314,1.629c0.895,0.17,1.664,0.676,2.177,1.428
				c0.493,0.727,0.681,1.566,0.525,2.371c-0.291,1.541-1.588,2.619-3.15,2.619c-0.209,0-0.422-0.02-0.63-0.061l-18.713-5.434
				c-0.734-0.168-1.192-0.818-1.065-1.514l0.014-0.047c0.096-0.404,0.368-0.73,0.748-0.895
				C353.161,440.273,353.333,440.233,353.527,440.233 M353.527,439.233L353.527,439.233c-0.322,0-0.629,0.064-0.938,0.197
				c-0.664,0.287-1.144,0.853-1.318,1.555l-0.009,0.028l-0.022,0.098c-0.224,1.222,0.547,2.359,1.795,2.661l18.688,5.426
				l0.043,0.013l0.043,0.009c0.268,0.053,0.544,0.079,0.823,0.079c2.052,0,3.751-1.412,4.133-3.434
				c0.205-1.061-0.036-2.17-0.681-3.118c-0.664-0.974-1.664-1.63-2.817-1.849l-0.051-0.01l-0.052-0.004l-19.285-1.627
				C353.755,439.241,353.639,439.233,353.527,439.233L353.527,439.233z"/>
		</g>
		<g>
			<path fill="#02A8B8" d="M358.526,463.209c-0.225,0-0.45-0.021-0.669-0.064l-0.143-0.031l-14.429-4.613
				c-0.942-0.23-1.545-1.128-1.368-2.077c0.168-0.866,0.904-1.468,1.791-1.468l15.341,0.843c1.051,0.189,1.866,0.719,2.422,1.536
				c0.571,0.842,0.796,1.872,0.614,2.828C361.742,461.956,360.278,463.209,358.526,463.209z"/>
			<path fill="#FFFFFF" d="M343.708,455.455l0.186,0.014l15.128,0.828c0.856,0.158,1.557,0.613,2.035,1.318
				c0.498,0.732,0.694,1.625,0.537,2.453c-0.298,1.555-1.56,2.641-3.068,2.641c-0.192,0-0.385-0.018-0.572-0.055l-0.087-0.018
				l-14.429-4.613c-0.715-0.176-1.156-0.824-1.029-1.51C342.53,455.891,343.065,455.455,343.708,455.455 M343.746,454.455h-0.037
				c-1.13,0-2.067,0.768-2.281,1.868c-0.225,1.21,0.521,2.345,1.735,2.662l14.399,4.604l0.053,0.017l0.054,0.012l0.087,0.018
				c0.251,0.05,0.509,0.074,0.771,0.074c1.995,0,3.661-1.42,4.051-3.452c0.206-1.087-0.047-2.254-0.692-3.204
				c-0.632-0.931-1.559-1.532-2.681-1.739l-0.062-0.012l-0.064-0.003l-15.128-0.828l-0.167-0.013L343.746,454.455L343.746,454.455z"
				/>
		</g>
		<g>
			<path fill="#02A8B8" d="M307.846,522.229c-2.324,0-4.24-0.61-5.696-1.813c-5.763-4.77-6.134-7.71,1.957-20.751l1.609-2.292
				l1.434,0.843l-0.197,0.414c-0.99,2.08-1.36,5.234,2.499,8.45c1.02,0.85,2.267,1.262,3.812,1.262
				c3.688,0,8.939-2.382,16.053-7.282c34.542-23.801,102.328-85.935,120.525-104.725l18.028-16.428
				c1.266-1.269,3.521-2.564,5.672-2.564c1.05,0,1.969,0.303,2.731,0.899c2.133,1.669,0.81,3.68,0.099,4.759l-0.246,0.356
				l-0.038,0.036c-55.064,52.185-125.615,112.302-141.494,125.544l-0.196,0.164C323.642,517.569,314.216,522.229,307.846,522.229z"
				/>
			<path fill="#FFFFFF" d="M473.542,377.842c0.938,0,1.752,0.268,2.423,0.793c1.772,1.387,0.697,3.016-0.013,4.094l-0.208,0.301
				c-55.082,52.201-125.602,112.289-141.471,125.523l-0.196,0.164c-10.657,8.391-19.971,13.012-26.231,13.012
				c-2.206,0-4.017-0.574-5.378-1.699c-5.484-4.539-5.998-7.107,2.063-20.102l1.328-1.891l0.642,0.377
				c-1.066,2.24-1.477,5.627,2.631,9.049c1.101,0.917,2.471,1.378,4.132,1.378c3.815,0,9.167-2.432,16.336-7.37
				c34.572-23.822,102.396-85.99,120.601-104.789l18.006-16.406C469.411,379.07,471.537,377.842,473.542,377.842 M473.542,376.842
				c-2.294,0-4.688,1.369-6.043,2.727l-17.972,16.374l-0.022,0.021l-0.022,0.022c-18.187,18.78-85.932,80.876-120.449,104.661
				c-7.027,4.841-12.186,7.193-15.769,7.193c-1.423,0-2.566-0.375-3.493-1.146c-2.9-2.416-3.697-5.058-2.368-7.851l0.394-0.827
				l-0.79-0.465l-0.642-0.377l-0.795-0.467l-0.53,0.754l-1.328,1.891l-0.017,0.023l-0.015,0.024
				c-7.907,12.744-8.201,16.145-1.852,21.399c1.549,1.28,3.573,1.929,6.016,1.929c6.481,0,16.017-4.697,26.85-13.226l0.22-0.183
				c15.88-13.244,86.442-73.371,141.517-125.565l0.076-0.071l0.059-0.086l0.208-0.301c0.7-1.062,2.304-3.496-0.193-5.449
				C475.73,377.18,474.708,376.842,473.542,376.842L473.542,376.842z"/>
		</g>
		<g>
			<path fill="#02A8B8" d="M609.947,354.795c-0.624,0-1.177-0.36-1.519-0.987c-1.525-2.799-1.841-3.378-2.179-4.765
				c-3.521,1.452-7.114,2.543-11.242,3.797l-4.417,1.356l0.136-1.313c1.614-15.988,5.856-23.41,7.605-25.859l0.414-0.584
				l0.652,0.294c5.549,2.445,10.143,4.594,14.041,6.566c3.595,1.821,6.714,3.557,9.272,5.159l1.089,0.678l-1.034,0.764
				c-1.035,0.764-2.308,1.595-3.787,2.473c-0.062,1.435-0.089,2.678-0.082,3.792c-0.046,0.83-0.589,1.444-1.384,1.594
				c-0.054,0.01-0.287,0.03-0.341,0.03c-0.663,0-1.234-0.358-1.49-0.937c-0.263-0.707-0.516-1.423-0.783-2.229
				c-1.101,0.568-2.258,1.138-3.453,1.699c-0.004,2.442,0.06,4.646,0.193,6.726c0.008,0.886-0.57,1.582-1.404,1.721
				C610.145,354.795,609.955,354.795,609.947,354.795z"/>
			<path fill="#FFFFFF" d="M598.916,327.064l0.277,0.125c5.565,2.453,10.152,4.6,14.021,6.557c3.582,1.814,6.688,3.543,9.232,5.137
				l0.465,0.289l-0.441,0.326c-1.08,0.797-2.417,1.664-3.978,2.582c-0.07,1.553-0.102,2.895-0.095,4.088
				c-0.032,0.572-0.417,0.994-0.977,1.1c-0.034,0.006-0.208,0.021-0.248,0.021c-0.462,0-0.858-0.244-1.033-0.639
				c-0.309-0.832-0.613-1.707-0.949-2.742c-1.345,0.705-2.77,1.408-4.243,2.096c-0.01,2.584,0.054,4.898,0.193,7.076
				c0.005,0.615-0.4,1.098-0.987,1.195c-0.052,0.014-0.166,0.02-0.206,0.02c-0.439,0-0.824-0.258-1.079-0.727
				c-1.727-3.168-1.871-3.441-2.264-5.215c-3.668,1.555-7.421,2.695-11.742,4.008c-1.013,0.309-2.062,0.627-3.156,0.965l-0.54,0.168
				l0.058-0.561c1.603-15.865,5.79-23.203,7.516-25.619L598.916,327.064 M598.575,325.814l-0.476,0.673l-0.177,0.25
				c-1.77,2.478-6.067,9.987-7.694,26.096l-0.058,0.559l-0.154,1.508l1.446-0.45l0.54-0.168c0.873-0.27,1.719-0.527,2.541-0.777
				l0.609-0.186c3.936-1.195,7.386-2.243,10.76-3.599c0.324,1.112,0.761,1.912,2.077,4.327c0.431,0.793,1.145,1.248,1.957,1.248
				c0.039,0,0.225-0.002,0.398-0.038c1.067-0.191,1.804-1.085,1.795-2.185v-0.028l-0.002-0.028c-0.127-1.979-0.19-4.07-0.192-6.376
				c0.914-0.433,1.805-0.87,2.664-1.307c0.195,0.574,0.39,1.119,0.592,1.665l0.011,0.029l0.013,0.028
				c0.337,0.761,1.083,1.233,1.947,1.233c0.101,0,0.33-0.021,0.417-0.036c1.029-0.193,1.749-1.008,1.806-2.028l0.002-0.031v-0.031
				c-0.006-1.036,0.018-2.185,0.07-3.498c1.395-0.836,2.603-1.629,3.596-2.361l0.441-0.326l1.186-0.876l-1.251-0.778l-0.465-0.289
				c-2.568-1.608-5.701-3.352-9.309-5.18c-3.907-1.977-8.509-4.128-14.069-6.579l-0.27-0.122L598.575,325.814L598.575,325.814z"/>
		</g>
		<g>
			<path fill="#02A8B8" d="M505.182,357.688c-44.151,0-44.298-3.078-44.36-4.393c-0.019-0.386,0.128-0.758,0.423-1.074
				c2.851-3.062,29.069-4.276,67.56-5.16l1.057-0.024c3.764-0.088,6.754-0.157,8.725-0.228c7.375-0.256,8.155-1.612,8.22-1.766
				c0.069-0.164-0.09-0.349-0.092-0.351c-1.636-2.056-8.02-2.397-21.719-2.397c-3.638,0-7.822,0.023-12.634,0.057
				c-1.228,0.008-2.464,0.012-3.708,0.012c-8.502,0-17.605-0.182-26.177-0.377c-19.116-0.453-38.841-1.333-58.626-2.616
				c-42.03-3.169-84.986-8.867-127.681-16.935l-0.309-0.055l-0.566-0.111c-5.669-1.073-11.3-2.181-16.732-3.291l-0.245-0.052
				l-12.496-2.461l-27.603,22.75c-0.447,0.396-1.062,0.619-1.717,0.619c-0.786,0-1.517-0.317-2.005-0.871
				c-0.468-0.531-0.702-1.213-0.658-1.921s0.361-1.355,0.891-1.824l24.901-23.514l7.252-6.397l11.559-0.304l17.528-0.324l0.07-0.077
				l0.382-0.005c4.84-0.086,9.874-0.154,15.383-0.211l1.353-0.03l-0.004,0.017c8.418-0.082,16.91-0.121,25.937-0.121
				c16.445,0,32.227,0.133,45.495,0.264l2.59,0.027l-2.078,1.549c-3.414,2.537-6.401,5.331-8.878,8.305l-0.279,0.339l-0.441-0.027
				c-5.264-0.287-23.402-1.226-35.658-1.226c-6.593,0-9.249,0.284-10.311,0.492l-0.03,0.095c0.224,0.152,0.704,0.425,1.504,0.684
				c14.598,4.58,30.405,8.118,49.743,11.132c15.645,2.421,32.261,4.244,50.798,5.573c9.415,0.658,21.136,1.021,33,1.021
				c32.406,0,71.886-2.882,76.5-11.005c0.609-1.072,1.143-2.358,0.471-3.762c-1.453-3.031-9.071-7.6-37.107-12.148l-6.639-1.075
				l6.693-0.654c-0.001,0,2.448-0.246,6.871-0.246c5.805,0,15.111,0.431,26.481,2.482c20.559,3.705,50.205,15.78,50.499,15.901
				l0.939,0.384l-0.523,0.872c-2.253,3.764-5.324,10.583-7.159,21.701c-0.099,0.596-0.188,1.131-0.271,1.687
				c-0.778,2.999-3.476,8.038-12.916,8.677c-0.268,0.019-28.572,1.902-50.045,2.284
				C514.056,357.649,509.507,357.688,505.182,357.688z"/>
			<path fill="#FFFFFF" d="M511.333,304.088c5.784,0,15.061,0.43,26.393,2.475c20.396,3.676,50.099,15.748,50.397,15.871
				l0.401,0.164l-0.224,0.373c-2.274,3.799-5.375,10.676-7.224,21.877l-0.005,0.027c-0.095,0.57-0.184,1.107-0.268,1.666
				c-0.74,2.842-3.333,7.635-12.456,8.252c-0.28,0.02-28.588,1.902-50.02,2.283c-4.13,0.07-8.677,0.111-13.147,0.111
				c-28.98,0-43.737-1.32-43.861-3.916c-0.012-0.254,0.087-0.492,0.29-0.711c2.891-3.104,34.009-4.238,67.205-5
				c4.266-0.1,7.635-0.176,9.787-0.252c7.139-0.248,8.437-1.533,8.663-2.072c0.195-0.463-0.17-0.869-0.187-0.885
				c-1.753-2.205-7.945-2.557-22.085-2.557c-3.639,0-7.824,0.023-12.638,0.057c-1.226,0.008-2.461,0.012-3.704,0.012
				c-8.532,0-17.617-0.182-26.165-0.377c-19.133-0.453-38.851-1.334-58.605-2.615c-42.116-3.176-85.152-8.891-127.923-16.984
				l-0.003,0.004l-0.566-0.111c-5.685-1.076-11.312-2.184-16.729-3.291l-0.242-0.051l-12.733-2.508l-27.785,22.9
				c-0.383,0.339-0.89,0.505-1.399,0.505c-0.608,0-1.22-0.237-1.63-0.702c-0.786-0.891-0.7-2.254,0.189-3.039l24.913-23.525
				l7.104-6.266l11.377-0.299l17.742-0.328l0.068-0.076l0.162-0.002c4.842-0.086,9.874-0.154,15.383-0.211l0.703-0.016l-0.002,0.008
				c8.484-0.084,17.186-0.127,26.579-0.127c16.862,0,33.167,0.143,45.49,0.264l1.108,0.012l-0.891,0.664
				c-3.446,2.561-6.461,5.381-8.963,8.385l-0.119,0.145l-0.187-0.012c-5.259-0.287-23.368-1.227-35.689-1.227
				c-8.933,0-10.836,0.518-11.236,0.76c0.032,0.027,0.079,0.061,0.146,0.104l0.248,0.152l-0.07,0.221
				c0.115,0.186,0.746,0.629,1.922,1.01c14.616,4.586,30.448,8.131,49.82,11.15c15.662,2.424,32.29,4.248,50.839,5.578
				c9.421,0.658,21.153,1.021,33.036,1.021c34.102,0,72.221-2.959,76.935-11.258c0.634-1.115,1.262-2.605,0.487-4.225
				c-2.189-4.566-14.798-8.746-37.479-12.426l-2.834-0.459l2.857-0.279C504.536,304.328,507.029,304.088,511.333,304.088
				 M511.333,303.088c-3.938,0-6.478,0.202-6.919,0.249l0,0l-2.857,0.279l-7.673,0.75l7.609,1.232l2.834,0.459
				c27.823,4.514,35.335,8.947,36.737,11.871c0.571,1.194,0.09,2.338-0.455,3.298c-3.71,6.531-33.567,10.752-76.065,10.752
				c-11.853,0-23.561-0.362-32.967-1.02c-18.521-1.328-35.124-3.149-50.755-5.568c-19.312-3.01-35.097-6.542-49.674-11.116
				c-0.009-0.003-0.018-0.006-0.027-0.009c1.524-0.146,4.168-0.283,8.719-0.283c12.243,0,30.371,0.938,35.635,1.225l0.179,0.012
				l0.51,0.032l0.324-0.395l0.119-0.145c2.448-2.938,5.405-5.705,8.788-8.218l0.892-0.665l2.374-1.771l-2.961-0.031l-1.108-0.012
				c-13.271-0.131-29.054-0.264-45.501-0.264c-8.797,0-17.087,0.037-25.295,0.114l0.004-0.017l-1.309,0.021l-0.703,0.016
				c-5.584,0.058-10.618,0.127-15.378,0.211l-0.156,0.002l-0.439,0.006l-0.071,0.078l-17.307,0.32l-11.385,0.299l-0.363,0.01
				l-0.272,0.24l-7.103,6.266l-24.938,23.549c-0.605,0.533-0.982,1.303-1.035,2.145c-0.053,0.841,0.225,1.652,0.782,2.283
				c0.583,0.661,1.45,1.04,2.38,1.04c0.778,0,1.51-0.269,2.062-0.756l27.394-22.577l12.269,2.417l0.23,0.048
				c5.44,1.112,11.073,2.221,16.748,3.295l0.56,0.11l0.61,0.119l0.006-0.008c42.615,8.042,85.482,13.722,127.428,16.885
				c19.803,1.284,39.534,2.165,58.657,2.618c8.575,0.195,17.682,0.377,26.188,0.377c1.245,0,2.482-0.004,3.711-0.012
				c4.266-0.029,8.748-0.057,12.631-0.057c11.373,0,19.57,0.154,21.265,2.134c-0.341,0.276-1.877,1.179-7.69,1.381
				c-1.967,0.069-4.947,0.139-8.721,0.227l-1.056,0.024c-46.898,1.076-65.305,2.518-67.913,5.318
				c-0.39,0.419-0.582,0.916-0.558,1.438c0.081,1.693,2.156,3,12.02,3.882c7.343,0.655,18.393,0.988,32.841,0.988
				c4.328,0,8.88-0.038,13.164-0.111c21.485-0.382,49.804-2.267,50.072-2.285c9.752-0.66,12.553-5.921,13.354-8.998l0.013-0.051
				l0.008-0.053c0.084-0.554,0.172-1.086,0.266-1.65c1.827-11.069,4.869-17.828,7.1-21.555l0.224-0.373l0.599-0.999l-1.078-0.44
				l-0.4-0.164c-0.292-0.12-29.99-12.215-50.599-15.93C526.497,303.52,517.159,303.088,511.333,303.088L511.333,303.088z"/>
		</g>
		<g>
			<path fill="#02A8B8" d="M547.682,278.201c-3.718,0-7.923-0.521-12.497-1.549l-30.922-8.249c-0.866-0.217-1.077-1.18-0.944-1.763
				c0.201-0.919,1.008-1.625,1.962-1.713c0.088-0.007,0.166-0.011,0.24-0.011c0.153,0,0.296,0.015,0.437,0.046l28.685,4.554
				c0.477,0.111,2.79,0.629,5.232,0.629c2.607,0,4.392-0.56,5.305-1.663c0.499-1.142,0.797-2.443,0.641-2.81
				c-1.001-2.331-5.887-3.144-5.937-3.152l-14.438-3.377c-1.125-0.301-1.816-0.869-2.069-1.691
				c-0.922-2.99,4.281-9.03,21.522-29.042l1.222-1.418c2.973-3.452,6.219-7.221,9.809-11.413l3.955-4.625
				c2.659-2.777,5.003-5.149,7.183-7.272c1.404-1.37,2.766-2.658,4.045-3.829c1.679-1.534,3.273-2.916,4.74-4.106
				c3.159-2.564,5.92-4.406,8.438-5.634c2.723-1.326,5.248-1.971,7.718-1.971c3.72,0,7.096,1.35,11.371,3.058l1.027,0.409
				c1.376,0.545,3.825,1.98,4.771,5.459c0.32,1.176,0.428,2.501,0.32,3.939c-0.043,0.558-0.118,1.133-0.222,1.71
				c-0.104,0.58-0.238,1.17-0.396,1.753c-1.292,4.748-4.462,10.388-9.424,16.763l-2.792,3.811l-25.284-3.713
				c-0.181-0.029-0.351-0.043-0.517-0.043c-1.283,0-2.041,0.881-2.222,1.754c-0.033,0.204-0.04,0.385-0.026,0.568
				c0.062,0.794,0.597,1.747,1.907,2.031l21.797,5.33l-3.004,4.099l-31.125-4.683c-0.178-0.029-0.349-0.043-0.514-0.043
				c-1.285,0-2.041,0.881-2.222,1.755c-0.034,0.207-0.041,0.389-0.027,0.567c0.063,0.794,0.604,1.749,1.93,2.037l27.597,6.317
				l-3.307,4.512l-37.824-5.689c-0.178-0.029-0.349-0.043-0.514-0.043c-1.284,0-2.042,0.881-2.223,1.755
				c-0.033,0.208-0.04,0.386-0.026,0.568c0.063,0.794,0.604,1.748,1.93,2.035l33.967,7.776l-16.127,22.003
				C558.67,276.691,554.005,278.201,547.682,278.201z"/>
			<path fill="#FFFFFF" d="M592.007,188.644c3.623,0,6.961,1.334,11.186,3.022l1.028,0.409c1.29,0.512,3.584,1.857,4.473,5.126
				c0.274,1.009,0.417,2.256,0.304,3.771c-0.04,0.521-0.109,1.073-0.215,1.659c-0.098,0.542-0.224,1.11-0.387,1.711
				c-1.102,4.049-3.787,9.457-9.336,16.587l-2.623,3.579l-24.986-3.669c-0.2-0.032-0.397-0.049-0.589-0.049
				c-1.565,0-2.489,1.082-2.711,2.153l-0.011,0.062c-0.033,0.2-0.042,0.42-0.025,0.644c0.077,0.976,0.732,2.143,2.301,2.482
				l21.057,5.149l-2.383,3.251l-30.826-4.638c-0.199-0.032-0.397-0.049-0.588-0.049c-1.566,0-2.49,1.082-2.711,2.154l-0.012,0.062
				c-0.032,0.2-0.042,0.419-0.025,0.643c0.078,0.976,0.733,2.143,2.322,2.488l26.851,6.146l-2.679,3.654l-37.525-5.645
				c-0.199-0.032-0.397-0.049-0.588-0.049c-1.566,0-2.49,1.082-2.712,2.153l-0.011,0.062c-0.032,0.201-0.042,0.419-0.025,0.644
				c0.078,0.976,0.732,2.143,2.322,2.487l33.221,7.605l-15.678,21.39c-2.053,2.619-6.574,4.059-12.743,4.059c0,0,0,0-0.002,0
				c-3.681,0-7.849-0.518-12.386-1.537l-30.902-8.243c-0.612-0.153-0.645-0.911-0.586-1.169c0.156-0.713,0.782-1.258,1.521-1.326
				c0.068-0.006,0.133-0.009,0.194-0.009c0.118,0,0.224,0.011,0.33,0.034l28.713,4.56c0.458,0.108,2.816,0.636,5.311,0.636
				c2.805,0,4.734-0.639,5.735-1.9c0.415-0.933,0.951-2.61,0.67-3.269c-1.103-2.567-6.104-3.415-6.316-3.449l-14.404-3.37
				c-0.949-0.254-1.504-0.695-1.706-1.352c-0.84-2.726,4.77-9.237,21.424-28.569c3.301-3.833,6.943-8.059,11.031-12.832
				c0.486-0.567,0.98-1.145,1.479-1.728c0.487-0.569,0.985-1.152,1.486-1.738c0.33-0.387,0.653-0.765,0.99-1.159
				c2.574-2.687,4.946-5.091,7.151-7.239c1.413-1.378,2.754-2.646,4.034-3.817c1.674-1.53,3.242-2.89,4.718-4.087
				c3.135-2.544,5.864-4.365,8.342-5.572C587.239,189.234,589.667,188.644,592.007,188.644 M592.007,187.644
				c-2.548,0-5.144,0.661-7.937,2.022c-2.554,1.244-5.346,3.107-8.534,5.695c-1.476,1.196-3.077,2.584-4.763,4.125
				c-1.284,1.174-2.648,2.466-4.058,3.84c-2.184,2.127-4.53,4.503-7.175,7.263l-0.021,0.021l-0.019,0.021l-0.436,0.511l-0.555,0.648
				l-0.468,0.548l-1.018,1.189l-1.478,1.727c-3.588,4.189-6.833,7.957-9.805,11.407l-1.226,1.424
				c-17.832,20.699-22.624,26.262-21.622,29.516c0.308,0.998,1.116,1.679,2.404,2.023l14.435,3.378l0.034,0.008l0.034,0.006
				c1.207,0.195,4.818,1.137,5.557,2.856c0.061,0.268-0.186,1.347-0.61,2.344c-0.821,0.936-2.502,1.43-4.876,1.43
				c-2.387,0-4.65-0.507-5.08-0.609l-0.036-0.009l-0.037-0.006l-28.689-4.556c-0.165-0.034-0.332-0.05-0.511-0.05
				c-0.087,0-0.179,0.004-0.276,0.012c-1.178,0.109-2.167,0.976-2.415,2.109c-0.175,0.767,0.122,2.053,1.319,2.353l30.888,8.239
				c4.649,1.046,8.891,1.571,12.644,1.571c6.482,0,11.287-1.577,13.532-4.441l15.697-21.416l0.899-1.227l-1.482-0.339l-33.221-7.605
				c-1.344-0.292-1.525-1.292-1.549-1.593c-0.01-0.137-0.005-0.275,0.016-0.405l0.009-0.051c0.123-0.592,0.655-1.323,1.727-1.323
				c0.137,0,0.28,0.012,0.429,0.036l37.536,5.646l0.598,0.09l0.357-0.487l2.679-3.654l0.898-1.227l-1.482-0.339l-26.85-6.146
				c-1.344-0.292-1.525-1.293-1.549-1.594c-0.01-0.134-0.005-0.276,0.016-0.404l0.008-0.037c0.125-0.608,0.655-1.339,1.728-1.339
				c0.137,0,0.28,0.012,0.429,0.036l30.837,4.639l0.598,0.09l0.357-0.487l2.383-3.251l0.885-1.207l-1.454-0.355l-21.057-5.149
				c-1.338-0.291-1.518-1.291-1.541-1.59c-0.011-0.139-0.006-0.279,0.015-0.401l0.01-0.057c0.123-0.592,0.654-1.323,1.726-1.323
				c0.137,0,0.281,0.012,0.43,0.036l25,3.671l0.596,0.088l0.356-0.486l2.623-3.579c4.985-6.405,8.185-12.104,9.494-16.916
				c0.163-0.598,0.299-1.202,0.406-1.796c0.106-0.595,0.184-1.187,0.228-1.76c0.112-1.497-0.001-2.879-0.336-4.11
				c-1.003-3.688-3.606-5.213-5.068-5.793l-1.027-0.409C599.239,189.009,595.823,187.644,592.007,187.644L592.007,187.644z"/>
		</g>
	</g>
	<g>
		<path fill="#F0F0E4" d="M587.903,318.672l-0.398-0.163c-0.294-0.121-29.99-12.216-50.601-15.931
			c-11.407-2.059-20.745-2.49-26.57-2.49c-4.206,0-6.816,0.23-6.92,0.249l-2.857,0.279c-0.5,0.049-0.886,0.461-0.901,0.964
			c-0.017,0.502,0.343,0.938,0.839,1.019l2.834,0.459c6.589,1.069,12.401,2.197,17.276,3.351c0.053,0.013,0.106,0.021,0.16,0.024
			c5.529,0.391,11.177,1.102,16.784,2.114c17.131,3.087,41.058,12.209,47.982,14.931c0.12,0.047,0.244,0.069,0.366,0.069
			c0.368,0,0.721-0.205,0.895-0.553c0.452-0.905,0.912-1.749,1.367-2.51l0.224-0.372c0.15-0.251,0.184-0.554,0.092-0.83
			C588.381,319.005,588.173,318.782,587.903,318.672z"/>
		<path fill="#F0F0E4" d="M524.118,256.562c0.097,0.029,0.195,0.043,0.292,0.043c0.373,0,0.726-0.209,0.897-0.559
			c1.836-3.729,8.149-11.057,20.728-25.657l1.225-1.421c2.973-3.453,6.219-7.222,9.808-11.412l3.918-4.584
			c2.629-2.744,4.96-5.104,7.128-7.216c1.394-1.358,2.743-2.636,4.011-3.795c1.656-1.515,3.229-2.877,4.673-4.049
			c3.069-2.491,5.735-4.273,8.149-5.45c2.515-1.225,4.824-1.819,7.062-1.819c3.431,0,6.689,1.302,10.815,2.952l1.03,0.409
			c0.81,0.321,2.312,1.135,3.282,2.979c0.176,0.334,0.521,0.534,0.885,0.534c0.006,0,0.013,0.001,0.02,0c0.553,0,1-0.448,1-1
			c0-0.083-0.01-0.165-0.029-0.242c-0.043-0.853-0.161-1.638-0.352-2.337c-1.003-3.689-3.606-5.214-5.067-5.793l-1.027-0.409
			c-4.325-1.729-7.741-3.094-11.557-3.094c-2.548,0-5.144,0.661-7.937,2.022c-2.554,1.244-5.346,3.106-8.534,5.694
			c-1.475,1.196-3.077,2.585-4.763,4.126c-1.284,1.174-2.649,2.465-4.058,3.838c-2.184,2.129-4.53,4.504-7.214,7.307l-3.954,4.624
			c-3.588,4.19-6.833,7.958-9.805,11.408l-1.225,1.421c-17.832,20.699-22.624,26.263-21.622,29.518
			C522.187,255.541,522.934,256.2,524.118,256.562z"/>
		<path fill="#F0F0E4" d="M495.965,281.416l18.083,4.138l24.936,3.749c0.31,0.059,0.642,0.194,0.961,0.393
			c0.163,0.102,0.346,0.15,0.526,0.15c0.296,0,0.586-0.131,0.782-0.376c0.377-0.472,0.624-1.001,0.735-1.58
			c0.419-2.232-1.54-4.156-3.67-4.559l-41.526-6.246c-0.192-0.031-0.367-0.042-0.513-0.042c-1.289,0-2.048,0.884-2.236,1.809
			c-0.026,0.17-0.033,0.344-0.02,0.517C494.104,280.404,494.834,281.171,495.965,281.416z"/>
		<path fill="#F0F0E4" d="M543.699,342.689c-0.143-0.03-0.289-0.027-0.431,0.004c-1.405,0.326-3.322,0.533-5.7,0.616
			c-1.973,0.069-4.968,0.14-8.738,0.228l-1.036,0.023c-46.899,1.076-65.306,2.518-67.915,5.319
			c-0.389,0.418-0.581,0.915-0.557,1.438c0.066,1.394,1.601,2.284,5.13,2.979c0.064,0.013,0.129,0.019,0.193,0.019
			c0.079,0,0.157-0.01,0.234-0.028c9.139-2.202,37.46-3.12,63.96-3.728l1.037-0.024c3.781-0.088,6.784-0.158,8.762-0.229
			c5.751-0.199,8.875-1.077,9.549-2.683c0.335-0.792-0.012-1.562-0.357-1.936C547.066,343.756,545.751,343.119,543.699,342.689z"/>
		<path fill="#F0F0E4" d="M503.134,265.887l10.559,2.816c0.033,0.01,0.067,0.017,0.101,0.021l20.54,3.259
			c0.468,0.111,2.932,0.663,5.541,0.663c3.126,0,5.319-0.767,6.519-2.279c0.053-0.065,0.097-0.138,0.131-0.215
			c0.205-0.462,1.204-2.83,0.675-4.069c-0.312-0.728-0.877-1.392-1.677-1.972c-0.257-0.187-0.584-0.24-0.888-0.146
			c-0.302,0.095-0.541,0.327-0.645,0.626c-0.078,0.225-0.16,0.438-0.24,0.625c-0.82,0.936-2.502,1.43-4.875,1.43
			c-2.387,0-4.65-0.508-5.153-0.623l-28.657-4.549c-0.257-0.056-0.487-0.074-0.829-0.045c-1.168,0.108-2.157,0.975-2.404,2.101
			C501.655,264.305,501.952,265.592,503.134,265.887z"/>
		<path fill="#F0F0E4" d="M575.327,248.278l-33.232-7.608c-0.183-0.039-0.359-0.104-0.557-0.2c-0.433-0.214-0.953-0.089-1.242,0.296
			c-0.335,0.447-0.57,0.961-0.679,1.486c-0.003,0.015-0.017,0.092-0.019,0.106c-0.046,0.283-0.058,0.578-0.035,0.882
			c0.103,1.272,0.978,2.922,3.096,3.382l29.854,6.835c0.075,0.017,0.149,0.025,0.224,0.025c0.314,0,0.615-0.148,0.807-0.409
			l2.367-3.229c0.199-0.271,0.248-0.625,0.131-0.939C575.922,248.588,575.655,248.354,575.327,248.278z"/>
		<path fill="#F0F0E4" d="M450.19,374.178c0.14,0.001,0.273,0.013,0.401,0.031c0.049,0.007,0.097,0.011,0.146,0.011
			c0.173,0,0.344-0.045,0.496-0.132c1.068-0.609,1.676-1.672,1.624-2.841c-0.08-1.792-1.582-3.054-3.662-3.069h-0.693
			c-3.819,0-45.154-2.571-65.077-11.134c-1.318-0.819-2.469-0.993-3.207-0.993c-1.23,0-2.318,0.431-3.236,1.282
			c-1.621,1.51-0.877,3.938,0.169,6.336c0.18,0.411,0.608,0.656,1.056,0.591c0.444-0.062,0.793-0.413,0.853-0.858
			c0.046-0.343,0.177-0.504,0.284-0.604c0.542-0.503,1.155-0.747,1.875-0.747c0.485,0,1.262,0.126,2.203,0.725
			c0.045,0.028,0.092,0.054,0.141,0.074c20.188,8.712,62.076,11.328,65.94,11.328H450.19z"/>
		<path fill="#F0F0E4" d="M622.439,335.322l-0.462-0.287c-2.571-1.61-5.704-3.354-9.312-5.182
			c-3.906-1.977-8.508-4.128-14.061-6.576l-0.277-0.125c-0.435-0.194-0.95-0.057-1.228,0.335l-0.174,0.246
			c-1.772,2.481-6.07,9.991-7.697,26.098l-0.058,0.561c-0.034,0.335,0.102,0.664,0.361,0.876c0.182,0.148,0.406,0.227,0.634,0.227
			c0.1,0,0.199-0.015,0.297-0.045l1.532-0.473c0.371-0.114,0.643-0.434,0.696-0.817c1.714-12.275,4.975-18.446,6.573-20.845
			c5.315,2.35,9.734,4.42,13.497,6.324c2.095,1.06,4.115,2.145,6.008,3.224c0.32,0.184,0.719,0.176,1.031-0.024
			c0.887-0.562,1.626-1.065,2.264-1.535l0.441-0.326c0.266-0.197,0.418-0.514,0.404-0.845
			C622.897,335.801,622.72,335.498,622.439,335.322z"/>
		<path fill="#F0F0E4" d="M311.833,306.887l0.574-0.013c0.037,0.003,0.077,0.005,0.113,0.005c8.625-0.085,17.316-0.127,26.569-0.127
			c15.583,0,30.697,0.124,40.71,0.218c0.004,0,0.007,0,0.01,0c0.246,0,0.484-0.091,0.667-0.255c1.36-1.22,2.642-2.272,3.919-3.222
			l0.891-0.664c0.344-0.257,0.486-0.704,0.354-1.111c-0.134-0.408-0.512-0.686-0.94-0.69l-1.109-0.012
			c-13.271-0.13-29.057-0.264-45.5-0.264c-9.214,0-17.872,0.041-26.463,0.126c-0.046-0.006-0.089-0.006-0.138-0.007l-0.689,0.016
			c-5.512,0.057-10.547,0.125-15.386,0.211l-0.161,0.002c-0.135,0.002-0.265,0.03-0.385,0.082l-17.44,0.322l-11.377,0.299
			c-0.234,0.007-0.46,0.095-0.636,0.25l-7.128,6.288L233.4,331.844c-0.631,0.557-1.007,1.326-1.06,2.167
			c-0.053,0.842,0.225,1.652,0.781,2.283c0.527,0.599,1.312,0.975,2.152,1.033c0.022,0.001,0.045,0.002,0.068,0.002
			c0.254,0,0.5-0.097,0.687-0.272l24.606-23.238l6.831-6.025l11.007-0.289l17.742-0.328c0.13-0.003,0.258-0.03,0.376-0.081
			C301.386,307.01,306.37,306.942,311.833,306.887z"/>
		<path fill="#F0F0E4" d="M358.204,452.313c-0.042-0.008-0.084-0.013-0.127-0.015l-15.109-0.827l-0.259-0.017
			c-1.13,0-2.067,0.769-2.283,1.877c-0.225,1.214,0.538,2.358,1.708,2.644l5.153,1.647c0.081,0.026,0.165,0.042,0.25,0.046
			l11.361,0.623c0.302,0.063,0.574,0.188,0.833,0.38c0.175,0.129,0.384,0.196,0.596,0.196c0.083,0,0.167-0.011,0.249-0.031
			c0.292-0.075,0.534-0.277,0.66-0.552c0.168-0.367,0.276-0.694,0.341-1.03c0.206-1.085-0.047-2.252-0.692-3.201
			C360.252,453.122,359.326,452.521,358.204,452.313z"/>
		<path fill="#F0F0E4" d="M542.348,323.215c0.695-1.224,1.506-3.089,0.521-5.15c-0.231-0.483-0.567-0.972-0.998-1.451
			c-0.24-0.268-0.605-0.384-0.958-0.309c-0.352,0.076-0.635,0.337-0.741,0.68c-0.117,0.378-0.301,0.784-0.562,1.242
			c-3.71,6.531-33.567,10.752-76.065,10.752c-11.854,0-23.561-0.362-32.965-1.019c-18.523-1.329-35.126-3.15-50.756-5.569
			c-16.842-2.624-30.732-5.588-43.715-9.326c-0.098-0.029-0.203-0.042-0.3-0.039c-6.548,0.152-7.401,0.667-7.722,0.86
			c-0.277,0.167-0.456,0.458-0.48,0.78c-0.025,0.322,0.107,0.637,0.355,0.844c0.004,0.003,0.008,0.006,0.011,0.009
			c0.024,0.079,0.061,0.157,0.105,0.229c0.46,0.737,2.001,1.282,2.472,1.435c14.674,4.604,30.551,8.158,49.966,11.185
			c15.687,2.428,32.342,4.255,50.923,5.588c9.45,0.66,21.207,1.023,33.105,1.023C481.229,334.979,536.148,334.13,542.348,323.215z"
			/>
		<path fill="#F0F0E4" d="M388.05,429.957c0.176,0.136,0.391,0.207,0.608,0.207c0.072,0,0.146-0.008,0.218-0.023
			c0.288-0.064,0.534-0.254,0.67-0.517c0.2-0.387,0.333-0.761,0.406-1.14c0.2-1.044-0.034-2.128-0.662-3.052
			c-0.695-1.024-1.752-1.717-3.06-1.963l-23.492-2.426c-0.146-0.021-0.284-0.03-0.403-0.03c-1.135,0-2.077,0.767-2.293,1.874
			c-0.161,0.88,0.216,1.778,0.953,2.283c0.27,0.188,0.577,0.321,0.863,0.382l7.665,2.085c0.053,0.015,0.106,0.024,0.16,0.03
			l17.256,1.779C387.333,429.522,387.707,429.694,388.05,429.957z"/>
		<path fill="#F0F0E4" d="M373.885,444.318c0.176,0.133,0.389,0.203,0.604,0.203c0.077,0,0.155-0.009,0.231-0.027
			c0.291-0.069,0.535-0.265,0.667-0.533c0.186-0.38,0.308-0.738,0.374-1.092c0.206-1.064-0.035-2.174-0.681-3.124
			c-0.662-0.972-1.663-1.628-2.816-1.847c-0.034-0.007-0.068-0.011-0.103-0.014l-19.249-1.621c-0.49-0.074-0.896-0.017-1.326,0.168
			c-0.673,0.29-1.155,0.867-1.325,1.579c-0.01,0.033-0.018,0.066-0.023,0.101c-0.226,1.231,0.56,2.379,1.77,2.653l6.42,1.864
			c0.064,0.019,0.129,0.031,0.195,0.036l14.314,1.207C373.27,443.943,373.588,444.093,373.885,444.318z"/>
		<path fill="#F0F0E4" d="M475.582,374.848c-0.852-0.668-1.874-1.006-3.039-1.006c-2.293,0-4.688,1.37-6.009,2.694l-18.051,16.45
			c-18.187,18.78-85.932,80.876-120.45,104.661c-9.816,6.764-16.002,8.761-19.26,6.047c-0.904-0.753-1.615-1.544-2.111-2.351
			c-0.189-0.306-0.524-0.471-0.873-0.464l0.078-0.112c0.176-0.251,0.228-0.569,0.14-0.862c-0.394-1.312-0.26-2.679,0.398-4.062
			c0.224-0.468,0.051-1.029-0.396-1.292l-0.642-0.377c-0.449-0.263-1.025-0.139-1.325,0.287l-1.359,1.938
			c-6.422,10.352-7.56,14.411-5.069,18.103c0.188,0.279,0.502,0.44,0.828,0.44c0.082,0,0.165-0.01,0.247-0.031
			c0.409-0.104,0.709-0.454,0.749-0.874c0.229-2.396,1.804-5.82,5.363-11.641c-0.015,2.472,1.215,4.77,3.692,6.834
			c1.282,1.068,2.888,1.609,4.772,1.609c4.002,0,9.531-2.468,16.902-7.547c34.617-23.853,102.525-86.095,120.708-104.873
			l18.04-16.438c1.314-1.318,4.09-2.731,5.933-1.857c0.463,0.22,1.016,0.055,1.282-0.382
			C477.357,377.738,477.172,376.091,475.582,374.848z"/>
		<path fill="#F0F0E4" d="M236.961,260.764c0.131,0.494,0.611,0.809,1.119,0.732c0.505-0.078,0.87-0.523,0.847-1.035
			c-0.007-0.154,0.007-0.372,0.116-0.522c0.205-0.282,0.814-0.444,1.658-0.444c1.859,0.186,10.256,10.015,15.271,15.888l0.066,0.076
			c2.029,2.376,4.127,4.832,6.096,7.062c0.189,0.217,0.463,0.339,0.75,0.339c0.021,0,0.044-0.001,0.066-0.002l2.475-0.166
			c0.385-0.026,0.722-0.272,0.863-0.632c0.142-0.36,0.062-0.77-0.202-1.052c-2.819-2.997-6.22-6.977-9.509-10.826l-0.084-0.099
			c-9.988-11.694-14.527-16.584-16.781-16.589c-1.569,0-2.676,0.427-3.288,1.27c-0.688,0.949-0.511,2.143-0.366,2.588
			L236.961,260.764z M256.799,274.809L256.799,274.809L256.799,274.809L256.799,274.809z"/>
		<path fill="#F0F0E4" d="M284.119,273.242c0.114,0.042,0.232,0.062,0.348,0.062c0.357,0,0.7-0.192,0.879-0.523
			c1.548-2.852,6.133-6.795,9.17-9.406l4.861-4.047c5.027-4.227,13.754-8.72,20.027-8.72c1.601,0,5.054,0.491,6.666,2.351
			c0.252,0.292,0.653,0.413,1.023,0.309c0.372-0.104,0.651-0.412,0.717-0.793c0.207-1.194,0.113-2.301-0.279-3.291
			c-1.432-3.611-6.411-4.575-9.127-4.575c-6.746,0-16.017,4.734-21.311,9.185l-4.727,3.931l-0.158,0.138
			c-6.115,5.258-11.109,9.879-10.277,13.181C282.107,271.74,282.63,272.689,284.119,273.242z"/>
		<path fill="#F0F0E4" d="M244.422,289.21c-0.174,0.236-0.235,0.537-0.168,0.823l0.466,1.963c0.107,0.453,0.512,0.77,0.973,0.77
			c0.017,0,0.034,0,0.05-0.001c9.609-0.479,17.172-0.84,27.007-1.122c0.422-0.013,0.791-0.288,0.922-0.689s-0.004-0.842-0.338-1.101
			c-0.641-0.498-1.85-1.474-2.744-2.417c-0.205-0.217-0.499-0.32-0.793-0.311l-24.636,1.68
			C244.867,288.825,244.597,288.973,244.422,289.21z"/>
		<path fill="#F0F0E4" d="M580.733,242.569c0.314,0,0.615-0.148,0.807-0.409l2.367-3.229c0.199-0.271,0.248-0.625,0.131-0.941
			c-0.118-0.314-0.387-0.551-0.715-0.625l-26.86-6.148c-0.183-0.041-0.359-0.104-0.558-0.201c-0.433-0.214-0.953-0.089-1.242,0.295
			c-0.334,0.446-0.568,0.961-0.678,1.487c-0.003,0.015-0.018,0.091-0.02,0.105c-0.046,0.283-0.058,0.578-0.035,0.882
			c0.103,1.271,0.977,2.922,3.096,3.383l23.483,5.376C580.584,242.561,580.659,242.569,580.733,242.569z"/>
		<path fill="#F0F0E4" d="M401.713,307.172c0.14,0,0.289-0.011,0.438-0.021l0.19-0.013c0.122-0.007,0.242-0.035,0.354-0.084
			c23.677-10.467,53.97-11.28,62.69-11.28c4.479,0,7.575,0.175,8.982,0.339c2.144,0.244,11.427,3.269,17.681,13.606
			c0.177,0.293,0.491,0.475,0.833,0.482c0.007,0,0.015,0,0.022,0c0.333,0,0.646-0.166,0.831-0.443
			c1.167-1.744-0.177-3.83-0.688-4.624l-0.116-0.183c-6.662-11.241-16.947-14.554-19.333-14.825
			c-1.461-0.171-4.647-0.353-9.212-0.353c-9.187,0-41.041,0.884-65.244,12.239c-2.469,1.058-2.178,2.723-1.946,3.366
			C397.687,306.861,399.923,307.172,401.713,307.172z"/>
		<path fill="#F0F0E4" d="M215.824,316.178l-19.773,19.015c-0.527,0.471-0.84,1.115-0.878,1.81
			c-0.043,0.705,0.192,1.382,0.658,1.902c0.5,0.562,1.217,0.886,1.966,0.886c0.647,0,1.267-0.236,1.719-0.644l3.812-3.216
			c0,0,15.888-14.74,16.431-14.547c0.385,0.137,0.814,0.028,1.086-0.279c1.182-1.335,1.182-3.343,0.001-4.671
			C219.63,315.069,217.257,314.896,215.824,316.178z"/>
		<path fill="#F0F0E4" d="M397.247,321.712l0.502,0.094c0.041,0.007,0.082,0.013,0.123,0.015l0.248,0.014
			c0.062,0.002,0.123,0.002,0.186-0.006c0.368-0.046,0.667-0.053,0.785-0.053c0.225,0,0.711,0.022,1.43,0.056
			c1.699,0.081,4.863,0.233,8.459,0.233c12.086,0,18.728-1.617,20.302-4.944c0.839-1.767,0.214-4.74-0.59-7.701
			c-0.082-0.301-0.177-0.575-0.277-0.844c-0.181-0.482-0.695-0.75-1.196-0.615c-0.498,0.134-0.812,0.625-0.727,1.133
			c0.341,2.01,0.136,2.849-0.018,3.171c-0.541,1.143-3.426,3.801-18.494,3.801c-3.548,0-6.68-0.15-8.394-0.232
			c-0.738-0.034-1.257-0.057-1.495-0.057c-0.616,0-2.714,0.09-3.846,1.245c-0.48,0.49-0.727,1.103-0.714,1.772
			C393.579,321.022,395.875,321.453,397.247,321.712z"/>
		<path fill="#F0F0E4" d="M218.901,349.5c-0.624-0.492-1.579-0.555-2.235-0.242c-3.09,1.283-6.355,1.934-9.705,1.934
			c-3.104,0-6.14-0.56-9.106-1.69c-0.017-0.004-0.034-0.009-0.052-0.013c-0.17-0.049-0.664-0.174-1.23-0.174
			c-1.207,0-1.824,0.547-2.131,1.006c-0.382,0.573-0.506,1.23-0.363,1.906c0.024,0.256,0.085,0.502,0.179,0.728
			c0.321,0.788,0.997,1.41,1.963,1.773c2.896,0.896,5.92,1.351,8.987,1.351c4.657,0,9.268-1.061,13.306-3.056
			c0.589-0.271,1.035-0.757,1.227-1.338c0.164-0.505,0.117-1.027-0.131-1.471C219.447,349.929,219.209,349.688,218.901,349.5z"/>
		<path fill="#F0F0E4" d="M591.412,227.939c-0.114-0.314-0.378-0.551-0.702-0.629l-21.083-5.156c-0.174-0.037-0.345-0.1-0.537-0.193
			c-0.432-0.212-0.953-0.088-1.242,0.297c-0.333,0.445-0.566,0.959-0.676,1.482c-0.002,0.014-0.016,0.089-0.018,0.102
			c-0.047,0.281-0.059,0.578-0.036,0.887c0.101,1.273,0.97,2.922,3.061,3.375l17.723,4.334c0.079,0.02,0.158,0.028,0.237,0.028
			c0.313,0,0.615-0.147,0.807-0.409l2.334-3.184C591.476,228.604,591.526,228.253,591.412,227.939z"/>
		<path fill="#F0F0E4" d="M456.941,323.486c0.114,0,0.229-0.02,0.342-0.061c0.396-0.144,0.66-0.521,0.658-0.944
			c-0.025-5.497,2.979-13.854,4.223-16.085c0.521-0.615,1.857-2.478,1.012-4.479c-0.316-0.75-0.9-1.367-1.736-1.835
			c-0.481-0.271-1.09-0.099-1.36,0.382c-0.192,0.343-0.396,0.59-0.476,0.68c-0.024,0.027-0.047,0.057-0.067,0.086
			c-0.019,0.027-0.081,0.119-0.097,0.147c-1.666,2.973-5.688,14.458-4.167,19.977c0.186,0.68,0.488,1.274,0.899,1.771
			C456.365,323.358,456.649,323.486,456.941,323.486z"/>
		<path fill="#F0F0E4" d="M402.22,415.598c0.176,0.135,0.39,0.205,0.606,0.205c0.069,0,0.14-0.007,0.208-0.021
			c0.285-0.062,0.53-0.243,0.67-0.499c0.218-0.4,0.361-0.791,0.438-1.191c0.197-1.028-0.034-2.092-0.648-2.991
			c-0.71-1.048-1.852-1.788-3.205-2.044l-27.696-3.229c-0.167-0.027-0.323-0.038-0.452-0.038c-1.135,0-2.077,0.763-2.294,1.868
			c-0.195,1.062,0.403,2.365,1.857,2.678l8.929,2.316c0.044,0.012,0.09,0.021,0.135,0.025l20.218,2.354
			C401.42,415.114,401.836,415.305,402.22,415.598z"/>
	</g>
	<g>
		<path fill="#0C3542" d="M74.337,241.27l0.138,0.014l0.126-0.059c1.89-0.893,3.844-1.784,5.807-2.65
			c3.663-1.609,7.319-3.136,10.867-4.536l4.226-1.667l-4.487,0.709c-3.773,0.596-7.704,1.296-11.686,2.081
			c-5.67,1.142-10.762,2.337-15.569,3.653l-2.092,0.574l2.132,0.399C67.029,240.395,70.476,240.879,74.337,241.27z"/>
		<path fill="#0C3542" d="M465.989,320.23c4.822,0,16.596-9.545,18.906-11.459c0.617-0.51,0.763-1.409,0.338-2.094
			c-0.178-0.283-4.44-6.953-11.594-8.509c-0.228-0.049-0.459-0.073-0.687-0.073c-4.113,0-7.448,7.649-8.372,9.994
			c-1.043,2.649-3.201,9.061-0.725,11.375C464.235,319.814,464.913,320.23,465.989,320.23z"/>
		<path fill="#0C3542" d="M646.051,288.938c-0.624,0.813-0.466,1.94,0.38,2.684c2.534,2.184,4.776,5.11,6.852,8.945
			c1.711,3.194,3.139,6.721,4.369,10.796c0.336,0.987,1.33,1.651,2.476,1.651c0.322,0,0.646-0.052,0.962-0.154
			c0.68-0.224,1.292-0.777,1.638-1.479c0.324-0.642,0.375-1.323,0.144-1.985c-1.641-4.241-3.464-7.915-5.575-11.233
			c-2.636-4.112-5.423-7.224-8.522-9.516C647.94,288.04,646.634,288.178,646.051,288.938z"/>
		<path fill="#0C3542" d="M627.856,293.644c1.001-0.951,0.981-2.539-0.043-3.69c-0.492-0.565-1.319-0.916-2.159-0.916
			c-0.695,0-1.305,0.237-1.77,0.695c-2.688,2.784-5.012,6.228-7.106,10.528c-1.693,3.51-3.089,7.298-4.268,11.59
			c-0.275,1.074,0.254,2.092,1.283,2.425c0.146,0.04,0.333,0.064,0.487,0.064c0.813,0,1.54-0.545,1.854-1.393
			c1.381-3.879,2.993-7.421,4.794-10.525C623.062,298.757,625.324,295.889,627.856,293.644z"/>
		<path fill="#0C3542" d="M613.973,377.398l-0.031-0.1c-0.22-0.624-0.898-1.354-2.086-1.354c-0.389,0-0.811,0.077-1.253,0.23
			c-0.642,0.22-1.447,0.775-1.801,1.52c-0.247,0.511-0.266,1.068-0.049,1.629c2.017,4.707,4.268,8.7,6.891,12.22
			c0.352,0.446,0.925,0.714,1.532,0.714c0.372,0,0.716-0.102,0.985-0.285c0.828-0.536,1.092-1.6,0.615-2.548
			C616.83,385.93,615.258,381.996,613.973,377.398z"/>
		<path fill="#0C3542" d="M662.532,367.294c-0.131-0.035-0.27-0.052-0.423-0.052c-0.856,0-1.643,0.629-1.911,1.529
			c-1.367,4.593-3.039,8.794-4.967,12.486c-2.329,4.427-4.842,7.84-7.69,10.442c-1.056,1.018-1.064,2.607-0.022,3.779
			c0.482,0.546,1.267,0.872,2.097,0.872c0.752,0,1.417-0.265,1.934-0.775c3.042-3.186,5.632-7.217,7.917-12.325
			c1.825-4.129,3.264-8.561,4.402-13.553C664.11,368.562,663.546,367.55,662.532,367.294z"/>
		<path fill="#0C3542" d="M621.443,371.787l-0.038-0.111c-0.223-0.571-0.87-1.238-1.96-1.238c-0.531,0-1.045,0.152-1.382,0.28
			c-0.491,0.186-1.421,0.722-1.793,1.56c-0.215,0.488-0.227,1.005-0.032,1.493l0.043,0.097c1.898,3.998,3.985,7.343,6.393,10.241
			c0.345,0.382,0.858,0.601,1.408,0.601c0.402,0,0.776-0.117,1.079-0.337c0.803-0.57,1.032-1.626,0.536-2.524
			C623.988,378.979,622.598,375.692,621.443,371.787z"/>
		<path fill="#0C3542" d="M647.688,304.487c-0.698-0.591-1.979-0.537-2.586,0.096c-0.696,0.707-0.727,1.798-0.064,2.604
			c2.545,2.939,4.46,6.719,6.036,11.921c0.226,0.615,0.908,1.334,2.088,1.334c0.401,0,0.827-0.079,1.265-0.235
			c0.758-0.269,1.471-0.892,1.774-1.551c0.242-0.522,0.255-1.073,0.029-1.659C653.82,311.579,651.03,307.49,647.688,304.487z"/>
		<path fill="#0C3542" d="M652.765,374.95c1.22-2.439,2.229-5.066,3.088-8.04c0.269-0.991-0.255-2.016-1.183-2.328
			c-0.922-0.329-2,0.202-2.405,1.125c-1.048,2.557-2.25,4.894-3.573,6.945c-1.509,2.328-3.157,4.208-4.917,5.604
			c-0.815,0.709-1.101,2.079,0.1,3.54c0.54,0.657,1.446,1.099,2.257,1.099c0.538,0,1.027-0.193,1.474-0.593
			C649.562,380.36,651.25,377.956,652.765,374.95z"/>
		<path fill="#0C3542" d="M623.623,325.502c0.188,0.065,0.426,0.105,0.617,0.105c0.751,0,1.438-0.457,1.753-1.171
			c1.946-4.56,4.142-7.793,6.784-9.949c0.703-0.648,1.054-1.944-0.267-3.463c-0.471-0.548-1.339-1.101-2.221-1.101
			c-0.53,0-1.007,0.19-1.447,0.618c-3.676,3.989-5.37,8.888-6.44,12.728C622.171,324.229,622.697,325.188,623.623,325.502z"/>
		<path fill="#0C3542" d="M648.183,353.705c0.652-3.018,0.911-6.264,0.769-9.655c-0.064-1.054-0.876-1.849-1.888-1.849
			c-1.021,0-1.819,0.782-1.897,1.869c-0.166,3.012-0.673,5.854-1.506,8.443c-1.007,3.062-2.314,5.341-3.907,6.795
			c-0.708,0.716-0.945,2.108,0.206,3.474c0.529,0.639,1.382,1.036,2.224,1.036c0.634,0,1.202-0.244,1.657-0.721
			C646.457,360.123,647.535,356.52,648.183,353.705z"/>
		<path fill="#DD7139" d="M166.464,174.299c0.29-5.205-0.68-8.759-3.053-11.185c-2.9-2.964-7.899-4.202-15.875-3.923
			c-3.605,0.121-7.876,0.552-13.056,1.316l-20.858,3.078l-3.691,66.121l21.062-3.109c23.475-3.465,35.551-8.009,36.399-23.229
			c0.561-10.041-4.145-11.934-8.888-13.488C163.715,186.593,166.031,182.033,166.464,174.299z M139.082,197.637
			c2.931-0.098,4.76,0.336,5.801,1.401c0.945,0.968,1.325,2.503,1.195,4.833c-0.387,6.93-4.768,8.404-13.963,9.795l0.859-15.393
			C135.644,197.887,137.533,197.69,139.082,197.637z M144.904,179.176c-0.369,6.611-1.979,7.981-11.389,9.415l0.859-15.392
			c2.422-0.352,4.023-0.521,5.331-0.564c2.149-0.073,3.494,0.233,4.23,0.986C144.784,174.487,145.073,176.148,144.904,179.176z"/>
		<path fill="#DD7139" d="M208.632,207.07l1.17,9.793l20.358-1.896l-13.047-63.652l-20.359,1.896l-27.927,67.469l20.359-1.896
			l3.439-10.223L208.632,207.07z M204.526,172.929l2.634,22.559l-10.499,0.978L204.526,172.929z"/>
		<polygon fill="#DD7139" points="284.336,180.555 268.347,147.496 248.203,148.724 238.538,214.457 258.809,213.223 
			263.588,180.724 279.72,211.948 299.994,210.713 309.658,144.98 289.386,146.216 		"/>
		<polygon fill="#DD7139" points="354.817,176.971 339.349,143.603 319.246,144.558 308.667,210.337 328.898,209.377 
			334.127,176.855 349.765,208.387 369.996,207.427 380.574,141.646 360.343,142.606 		"/>
		<polygon fill="#DD7139" points="378.853,207.059 421.101,205.026 423.152,192.221 401.137,193.279 403.439,178.908 
			419.091,178.154 421.143,165.35 405.491,166.102 407.571,153.112 429.585,152.053 431.636,139.247 389.39,141.28 		"/>
		<path fill="#DD7139" d="M488.895,155.802c0.841-5.729,0.003-9.913-2.56-12.791c-4.02-4.515-12.443-6.183-26.626-5.314
			l-20.273,1.239l-9.647,65.727l20.273-1.238l3.635-24.763l7.396-0.452l0.07,0.054c4.744,3.585,3.82,10.601,3.004,16.79
			c-0.375,2.846-0.729,5.529-0.463,7.537l20.273-1.237c-0.498-2.341-0.207-5.659,0.102-9.172c0.668-7.622,1.426-16.26-4.859-20.026
			l-0.383-0.229l0.41-0.207C484.634,169.006,487.7,163.949,488.895,155.802z M468.338,158.974c-1.094,7.45-3.508,9.303-12.913,9.911
			l-0.297,0.019l2.838-19.332l0.21-0.012c4.979-0.284,7.789,0.287,9.219,1.893C468.644,152.854,468.917,155.033,468.338,158.974z"/>
		<path fill="#DD7139" d="M492.223,178.663c-0.893,8.087,0.098,13.195,3.21,16.562c3.654,3.952,10.333,5.386,20.455,4.412
			c23.97-2.306,26.766-10.564,27.931-21.122c1.186-10.736-7.524-14.302-15.21-17.447c-6.037-2.472-11.251-4.606-10.692-9.668
			c0.607-5.498,1.895-6.54,4.551-6.795c1.091-0.105,1.823,0.077,2.276,0.568c1.016,1.098,0.917,3.803,0.334,9.08l22.289-2.144
			c0.763-6.915-0.451-12.153-3.608-15.569c-3.714-4.018-10.262-5.619-19.371-4.743c-19.78,1.901-26.635,7.085-28.206,21.33
			c-1.214,11.002,7.296,14.481,14.805,17.552c5.979,2.445,11.144,4.558,10.557,9.888c-0.417,3.778-1.245,6.022-4.245,6.312
			c-1.003,0.097-1.741-0.131-2.268-0.7c-1.415-1.53-0.999-5.297-0.52-9.657L492.223,178.663z"/>
		<path fill="#DD7139" d="M227.583,48.457c0.272-5.647-0.803-9.496-3.381-12.112c-3.504-3.555-9.903-4.975-20.749-4.607
			c-2.445,0.083-5.089,0.255-8.082,0.524l-20.859,1.878l-3.365,69.66l20.808-1.874c23.771-2.142,35.981-6.127,36.746-21.969
			c0.516-10.655-4.045-12.491-9.817-14.814l-0.488-0.197l0.478-0.253C224.649,61.632,227.172,56.929,227.583,48.457z
			 M194.506,44.462l0.224-0.02c1.735-0.157,3.061-0.247,4.171-0.285c3.562-0.12,5.481,0.303,6.626,1.463
			c1.165,1.183,1.55,3.091,1.369,6.806c-0.395,8.178-2.979,9.297-12.993,10.199l-0.276,0.025L194.506,44.462z M208.244,79.209
			c-0.377,7.808-4.922,9.472-15.646,10.438l-0.275,0.024l0.879-18.188l0.224-0.02c1.857-0.168,3.308-0.266,4.562-0.309
			c4.525-0.153,7.102,0.436,8.614,1.969C207.86,74.402,208.382,76.336,208.244,79.209z"/>
		<polygon fill="#DD7139" points="280.73,39.339 281.611,26.292 238.558,29.361 233.893,98.453 276.946,95.383 277.828,82.336 
			255.132,83.954 256.193,68.249 272.328,67.098 273.208,54.05 257.073,55.201 258.036,40.958 		"/>
		<path fill="#DD7139" d="M283.359,95.868l20.274-0.977l3.325-10.755l16.773-0.809l1.389,10.527l20.299-0.979l-14.508-68.203
			L310.46,25.66L283.359,95.868z M318.738,45.718l3.322,25.649l-11.36,0.548L318.738,45.718z"/>
		<path fill="#DD7139" d="M414.285,45.729c0.752-7.006-0.659-12.53-4.193-16.418c-4.164-4.581-11.239-6.83-21.03-6.687
			c-0.643,0.011-1.273,0.025-1.892,0.046c-12.253,0.417-19.788,3.099-24.435,8.699c-4.862,5.861-6.705,14.947-7.978,26.785
			c-1.516,14.112-1.456,23.313,3.331,28.58c3.902,4.292,10.917,6.044,23.457,5.86c0.387-0.007,0.766-0.016,1.144-0.028l0.003,0.249
			v-0.249c22.034-0.75,28.001-13.407,29.128-23.895l-22.048,0.325c-0.657,6.125-2.225,10.243-7.735,10.43l-0.214,0.006
			c-2.296,0.033-3.587-0.344-4.459-1.304c-1.999-2.2-1.75-8.041-0.434-20.301c2.022-18.821,3.465-21.904,9.702-22.01
			c1.952-0.029,3.362,0.465,4.312,1.508c1.38,1.518,1.778,4.209,1.293,8.727L414.285,45.729z"/>
		<polygon fill="#DD7139" points="469.822,93.153 480.108,25.48 460.079,24.884 455.828,52.844 442.349,52.442 446.599,24.482 
			426.57,23.886 416.282,91.559 436.311,92.155 440.346,65.617 453.826,66.019 449.792,92.557 		"/>
		<path fill="#0C3542" d="M118.746,76.098l-13.423,52.56l8.999-1.062c60.591-7.141,178.486-19.122,287.311-19.122
			c16.779,0,32.967,0.294,48.154,0.872c5.275-0.25,10.5-0.508,15.665-0.777c4.356-0.228,8.667-0.465,12.934-0.711
			c15.839-0.917,29.516-1.898,41.812-2.999l4.604-0.412l-4.586-0.582c-33.051-4.193-72.962-6.319-118.624-6.319
			c-95.096,0-196.58,8.967-264.975,16.49l10.966-5.491l-10.738-3.189l12.727-6.104l-11.341-3.164l13.33-6.129l-11.973-3.136
			l13.961-6.156l-12.627-3.104l14.616-6.188l-15.143-3.491l14.054-5.843l-15.479-3.462l14.391-5.871l-15.83-3.432l14.742-5.902
			l-16.197-3.399l15.108-5.933l-16.149-3.279c65.169-5.803,162.508-12.817,256.185-13.283c59.523-0.296,109.372,2.18,147.933,7.344
			c1.438,0.191,2.941,0.399,4.593,0.637c-2.898-0.18-5.812-0.34-8.908-0.49c-5.704-0.266-11.358-0.47-16.806-0.607l-0.086,0.994
			c5.367,0.794,10.939,1.681,16.562,2.635c14.891,2.555,27.856,5.26,39.637,8.271c-12.196-1.521-25.01-2.56-40.319-3.269
			c-5.868-0.26-11.625-0.453-17.109-0.576l-0.083,0.994c5.458,0.803,11.131,1.702,16.862,2.672
			c14.443,2.468,27.07,5.072,38.599,7.962c-11.761-1.394-24.609-2.386-39.281-3.03c-5.89-0.246-11.746-0.429-17.408-0.543
			l-0.082,0.994c5.56,0.814,11.333,1.725,17.158,2.707c14.024,2.387,26.323,4.896,37.599,7.67
			c-11.512-1.295-24.033-2.213-38.278-2.805c-6.011-0.236-11.972-0.408-17.718-0.511l-0.081,0.995
			c5.732,0.834,11.608,1.757,17.464,2.74c13.612,2.309,25.587,4.727,36.605,7.389c-11.254-1.201-23.45-2.049-37.282-2.59
			c-6.16-0.229-12.214-0.389-17.993-0.477l-0.079,0.995c5.726,0.829,11.693,1.763,17.736,2.773
			c13.208,2.231,24.873,4.562,35.661,7.124c-10.997-1.113-22.884-1.896-36.337-2.395c-6.23-0.217-12.381-0.365-18.28-0.441
			l-0.078,0.994c5.843,0.844,11.905,1.789,18.02,2.808c12.854,2.165,24.219,4.413,34.744,6.872
			c-10.751-1.033-22.337-1.755-35.417-2.209c-6.334-0.206-12.579-0.344-18.563-0.406l-0.076,0.995
			c5.939,0.853,12.097,1.808,18.298,2.838c12.463,2.093,23.529,4.261,33.832,6.628c-10.498-0.954-21.784-1.619-34.503-2.032
			c-6.429-0.194-12.765-0.319-18.832-0.368l-0.074,0.995c5.982,0.854,12.229,1.819,18.563,2.868
			c12.125,2.028,22.908,4.121,32.966,6.398c-10.234-0.882-21.236-1.494-33.635-1.87c-6.381-0.181-12.99-0.296-19.112-0.333
			l-0.073,0.995c6.105,0.869,12.444,1.845,18.841,2.9c11.78,1.964,22.284,3.983,32.111,6.175
			c-10.008-0.813-20.73-1.375-32.779-1.715c-6.51-0.17-13.213-0.271-19.385-0.295l-0.072,0.995c6.153,0.871,12.583,1.856,19.11,2.93
			c4.363,0.726,8.656,1.476,12.759,2.233l0.073,0.014l0.073-0.009c7.161-0.809,13.922-1.69,20.094-2.623l6.578-1.005l-0.094-0.008
			c37.869-6.162,60.159-15.75,66.244-28.514c1.069-2.244,4.142-10.322-1.2-20.114c-3.086-5.659-8.399-10.895-15.794-15.562
			c-2.651-1.675-5.584-3.286-8.715-4.792c-1.333-0.641-2.759-1.287-4.237-1.922c-10.093-4.332-22.525-7.968-36.957-10.807
			c-7.362-1.363-15.303-2.618-23.601-3.73C503.62,9.012,456.553,6.5,400.713,6.5c-3.144,0-6.356,0.008-9.55,0.024
			c-106.538,0.529-218.223,9.621-275.315,14.993l-6.811,0.642l9.694,50.864C118.681,73.643,118.685,74.676,118.746,76.098z"/>
		<path fill="#0C3542" d="M176.743,355.392l-0.216-0.625c-0.164-0.479-0.307-0.958-0.422-1.427
			c-0.115-0.467-0.211-0.949-0.285-1.435c-0.092-0.607-0.15-1.221-0.173-1.82c-0.403-10.849,9.892-19.924,11.073-20.929
			l12.344-10.901l1.588-52.421c5.539,7.12,14.415,17.26,26.464,27.091l0.328,0.269l2.775-2.451l-2.926-12.157l-0.112-0.104
			c-16.966-15.624-25.566-30.387-25.651-30.534l-0.249-0.432l-0.075,0.043l0.017-0.551l-4.434,0.292l-0.002,0.089l-1.076-0.018
			l-1.325,0.088c-29.691,1.961-52.704,2.875-72.423,2.875c-1.613,0-3.203-0.006-4.788-0.019c-3.948,0.058-7.517,0.089-10.909,0.095
			l-1.105,0.002c-1.877,0-3.711-0.009-5.506-0.026c-8.373-0.081-15.475-0.361-21.709-0.858l-0.735-0.059l0.083,0.268
			c-0.678-0.075-1.347-0.154-2.015-0.234l0.344-0.164l-1.782-0.18c-3.873-0.393-7.529-0.901-10.869-1.512l-0.155-0.008h-0.002
			l-0.513-0.094l0.02-0.011l-1.301-0.263c-14.351-2.896-24.71-8.18-33.589-17.131c-7.924-7.988-11.91-17.764-11.53-28.271
			c0.058-1.609,0.219-3.226,0.478-4.802c0.271-1.66,0.666-3.358,1.17-5.048l1.018-3.406l-1.918,2.994
			c-3.495,5.457-5.76,11.333-6.729,17.463l-0.089,0.585l-3.312,99.738c-0.313,10.341,3.235,19.161,10.546,26.216
			c11.862,11.446,33.972,18.193,67.591,20.626c10.266,0.744,21.337,1.106,33.846,1.106c16.245,0,35.08-0.626,57.584-1.913
			L176.743,355.392z M100.033,295.604c-6.215,0.299-12.218,0.45-17.844,0.45c-0.976,0-1.93-0.004-2.861-0.014
			c-4.771-0.039-9.663-0.22-14.146-0.524l-0.148,0.985c4.404,1.034,9.243,2.014,13.992,2.834c6.249,1.091,13.434,2.114,20.775,2.96
			c3.584,0.415,7.439,0.815,11.461,1.189c-3.99,0.284-7.824,0.515-11.396,0.688c-6.358,0.312-12.462,0.47-18.141,0.47
			c-0.886,0-1.753-0.004-2.602-0.012c-4.797-0.034-9.739-0.216-14.294-0.524l-0.149,0.985c4.477,1.064,9.363,2.068,14.133,2.9
			c6.266,1.108,13.463,2.148,20.814,3.009c3.301,0.388,6.812,0.762,10.438,1.109c-3.548,0.252-7.035,0.465-10.367,0.631
			c-6.49,0.324-12.686,0.489-18.415,0.489c-0.804,0-1.591-0.004-2.363-0.01c-4.862-0.031-9.856-0.213-14.442-0.526l-0.152,0.985
			c4.475,1.081,9.41,2.107,14.273,2.969c6.29,1.126,13.502,2.184,20.854,3.057c3.024,0.361,6.2,0.709,9.443,1.033
			c-3.29,0.229-6.44,0.422-9.365,0.571c-6.583,0.338-12.874,0.509-18.698,0.509c-0.719,0-1.424-0.004-2.118-0.01
			c-4.907-0.027-9.948-0.208-14.58-0.524l-0.153,0.984c4.542,1.112,9.523,2.162,14.404,3.036c6.275,1.138,13.5,2.212,20.893,3.105
			c2.625,0.318,5.484,0.639,8.498,0.953c-2.928,0.203-5.758,0.375-8.413,0.513c-6.702,0.352-13.086,0.53-18.976,0.53
			c-0.636,0-1.262-0.004-1.878-0.008c-4.97-0.023-10.059-0.205-14.719-0.526l-0.155,0.984c4.566,1.136,9.594,2.209,14.536,3.104
			c6.275,1.153,13.513,2.244,20.931,3.152c2.353,0.29,4.904,0.582,7.584,0.87c-2.703,0.187-5.154,0.338-7.49,0.463
			c-7.34,0.392-14.613,0.591-20.892,0.542c-5.021-0.02-10.155-0.201-14.851-0.526l-0.156,0.983c4.592,1.158,9.662,2.255,14.66,3.173
			c6.307,1.172,13.557,2.278,20.971,3.2c0.738,0.092,1.488,0.182,2.328,0.282c-40.075-1.302-65.126-7.312-76.587-18.372
			c-5.066-4.89-7.423-10.778-7.203-18.005l2.152-71.101c0.43,0.459,0.882,0.92,1.345,1.365
			c11.598,11.193,33.403,17.805,66.662,20.213c5.678,0.41,11.76,0.71,18.076,0.889c-1.918,0.104-3.508,0.18-4.997,0.244
			c-5.767,0.248-11.36,0.375-16.625,0.375c-1.339,0-2.661-0.008-3.931-0.024c-4.521-0.052-9.189-0.231-13.5-0.518l-0.141,0.987
			c4.236,0.936,8.861,1.819,13.371,2.557c6.224,1.029,13.355,1.986,20.623,2.769c4.953,0.536,10.318,1.03,15.945,1.47
			c-5.609,0.415-10.963,0.735-15.91,0.951c-5.901,0.262-11.6,0.395-16.936,0.395c-1.248,0-2.479-0.008-3.658-0.021
			c-4.568-0.048-9.295-0.229-13.671-0.521l-0.143,0.987c4.272,0.959,8.953,1.867,13.536,2.628c6.236,1.045,13.381,2.018,20.66,2.814
			c4.542,0.502,9.506,0.975,14.755,1.405c-5.114,0.375-10.064,0.672-14.712,0.882c-6.014,0.272-11.816,0.411-17.25,0.411
			c-1.148,0-2.285-0.006-3.381-0.018c-4.643-0.046-9.425-0.227-13.83-0.522l-0.145,0.986c4.342,0.988,9.076,1.921,13.689,2.697
			c6.262,1.062,13.42,2.053,20.698,2.863c4.224,0.473,8.804,0.922,13.614,1.335c-4.7,0.341-9.264,0.615-13.564,0.815
			c-7.344,0.34-14.354,0.485-20.668,0.413c-4.703-0.04-9.541-0.221-13.991-0.522l-0.146,0.986c4.375,1.012,9.163,1.968,13.843,2.766
			c6.252,1.076,13.422,2.083,20.738,2.912c3.938,0.447,8.144,0.871,12.502,1.261C108.093,295.169,103.907,295.422,100.033,295.604z"
			/>
		<path fill="#0C3542" d="M645.448,167.609l2.864-94.545c0.272-9.027-2.941-17.287-9.554-24.551l-2.172-2.385l1.348,2.931
			c0.643,1.397,1.191,2.847,1.631,4.308c0.424,1.415,0.752,2.846,0.973,4.252c0.929,5.893,0.152,11.666-2.245,16.695
			c-10.057,21.092-47.354,29.234-78.725,33.971c-9.222,1.392-19.225,2.614-30.579,3.738c-2.211,0.219-4.439,0.431-6.694,0.637
			c-26.426,2.406-55.822,3.902-81.098,5.05c-22.99,1.283-47.546,2.427-71.292,3.532c-84.843,3.949-172.574,8.033-240.347,20.127
			c-33.395,5.959-58.903,13.287-78.037,22.435c-3.165,2.012-6.122,4.139-8.788,6.321c-2.281,1.869-4.396,3.817-6.286,5.791
			c-5.146,5.371-8.783,11.069-10.814,16.934c-4.002,11.558-1.357,22.811,7.447,31.688c7.556,7.617,16.28,12.17,28.291,14.762
			l0.187,0.041l0.165-0.094c1.363-0.771,2.725-1.521,4.055-2.227c4.653-2.463,9.562-4.815,15.004-7.191
			c3.656-1.588,7.307-3.096,10.851-4.48l4.335-1.693l-4.596,0.734c-3.773,0.602-7.691,1.305-11.645,2.09
			c-7.084,1.432-13.068,2.889-18.829,4.585c1.719-0.979,3.454-1.927,5.155-2.819c4.684-2.455,9.625-4.798,15.102-7.162
			c3.643-1.565,7.286-3.053,10.829-4.424l4.442-1.717l-4.702,0.758c-3.754,0.604-7.655,1.309-11.599,2.096
			c-7.265,1.477-13.68,3.058-19.612,4.834c1.86-1.061,3.817-2.124,5.817-3.162c4.709-2.442,9.682-4.775,15.199-7.132
			c3.613-1.535,7.251-3.005,10.811-4.366l4.557-1.743l-4.816,0.782c-3.737,0.608-7.625,1.316-11.558,2.104
			c-7.569,1.547-14.243,3.21-20.402,5.086c2.112-1.201,4.294-2.382,6.486-3.508c4.729-2.427,9.732-4.75,15.296-7.101
			c3.627-1.524,7.25-2.973,10.769-4.305l-0.258-0.961c-3.71,0.608-7.576,1.316-11.493,2.104c-8.02,1.646-14.758,3.344-21.205,5.344
			c2.331-1.329,4.742-2.627,7.168-3.859c4.766-2.42,9.801-4.732,15.393-7.069c3.623-1.507,7.234-2.935,10.732-4.245l-0.256-0.961
			c-3.711,0.614-7.557,1.324-11.434,2.107c-8.367,1.727-15.389,3.518-22.09,5.637c2.514-1.436,5.182-2.863,7.932-4.246
			c4.801-2.412,9.867-4.715,15.488-7.039c3.574-1.469,7.176-2.877,10.703-4.185l-0.256-0.962c-3.662,0.611-7.49,1.321-11.379,2.111
			c-8.594,1.781-16.106,3.721-22.968,5.93c2.767-1.582,5.689-3.141,8.687-4.633c4.826-2.4,9.926-4.693,15.587-7.008
			c3.573-1.452,7.155-2.839,10.646-4.121l-0.256-0.962c-3.658,0.616-7.459,1.327-11.297,2.112
			c-9.105,1.895-16.695,3.877-23.883,6.235c2.992-1.716,6.182-3.409,9.479-5.032c4.871-2.398,10.001-4.682,15.684-6.979
			c3.575-1.438,7.14-2.803,10.593-4.057l-0.254-0.963c-3.639,0.619-7.414,1.329-11.221,2.111
			c-7.025,1.468-13.266,3.022-19.078,4.752c17.214-7.155,40.108-13.311,68.047-18.297c67.064-11.967,154.431-16.033,238.982-19.971
			c71.152-3.313,138.359-6.443,188.778-14.055c13.832-2.088,25.559-4.374,35.849-6.988c-5.346,2.047-11.162,4.039-17.779,6.086
			c-3.143,0.964-6.247,1.881-9.229,2.725l-4.513,1.275l4.68-0.296c3.108-0.196,6.352-0.439,9.643-0.722
			c5.441-0.482,13.695-1.3,22.549-2.826c-6.894,2.883-14.714,5.662-23.907,8.496c-3.192,0.979-6.362,1.912-9.422,2.775l-4.46,1.258
			l4.626-0.278c3.188-0.191,6.501-0.428,9.844-0.703c5.307-0.452,13.365-1.218,22.068-2.653c-6.796,2.797-14.46,5.498-23.431,8.256
			c-3.277,1-6.513,1.949-9.614,2.821l-4.409,1.239l4.572-0.259c3.237-0.183,6.616-0.413,10.044-0.685
			c5.188-0.424,13.067-1.143,21.588-2.483c-6.693,2.712-14.203,5.336-22.958,8.02c-3.325,1.013-6.623,1.978-9.803,2.869
			l-4.359,1.222l4.521-0.24c3.332-0.179,6.777-0.402,10.241-0.664c5.059-0.396,12.751-1.069,21.132-2.33
			c-6.576,2.628-13.939,5.179-22.508,7.798c-3.413,1.036-6.774,2.017-9.989,2.914l-4.309,1.202l4.468-0.221
			c3.328-0.166,6.838-0.382,10.436-0.643c4.944-0.372,12.465-1.004,20.675-2.182c-6.475,2.551-13.689,5.031-22.055,7.582
			c-3.46,1.047-6.884,2.043-10.177,2.961l-4.267,1.188l4.424-0.207c3.439-0.16,7.016-0.369,10.63-0.621
			c4.833-0.348,12.186-0.939,20.226-2.04c-6.379,2.479-13.448,4.891-21.612,7.374c-3.478,1.05-6.964,2.061-10.361,3.004
			l-4.221,1.174l4.376-0.191c3.494-0.153,7.135-0.354,10.822-0.599c4.724-0.325,11.912-0.878,19.791-1.907
			c-1.015,0.389-2.053,0.775-3.104,1.162c-5.133,0.265-10.08,1.93-15.558,5.236c-0.831,0.258-1.668,0.516-2.521,0.773
			c-3.566,1.074-7.113,2.101-10.543,3.051l-4.18,1.157l4.334-0.177c2.085-0.084,4.235-0.187,6.414-0.305
			c-5.239,4.055-11.109,9.518-18.33,17.053l-6.207,6.441c-48.124,6.311-109.604,9.177-174.687,12.211
			c-93.934,4.378-191.064,8.906-261.211,24.237l-4.617,1.009l4.727-0.021c4.092-0.019,8.478-0.07,13.41-0.16
			c9.51-0.173,19.932-0.388,31.695-0.792c5.467-0.189,10.645-0.398,15.831-0.639c8.616-0.396,16.981-0.866,25.575-1.434l0.129-0.01
			c54.315-5.628,115.652-8.486,175.026-11.254c59.54-2.776,115.812-5.4,162.068-10.644l-17.608,18.271
			c-0.346-0.187-0.717-0.319-1.11-0.394l-36.938-6.509c-1.482-0.263-2.882,0.733-3.163,2.17c-0.286,1.454,0.66,2.892,2.109,3.206
			l33.582,7.256l-16.163,16.771l-120.14-21.168c-1.488-0.256-2.882,0.734-3.164,2.172c-0.285,1.455,0.661,2.892,2.109,3.203
			l112.904,24.395l-1.771,1.838l-136.336-23.746c-1.484-0.259-2.884,0.74-3.16,2.184c-0.279,1.459,0.678,2.894,2.133,3.197
			l129.176,26.859l-5.623,5.835c-1.194-0.026-2.479-0.042-3.844-0.042c-12.362,0-43.752,1.261-68.463,12.953l-0.515-0.006
			c-16.292-0.172-36.567-0.387-57.403-0.387c-13.408,0-25.6,0.085-37.259,0.259l25.111-24.354c0.497-0.404,12.168-10.01,11.7-19.589
			c-0.083-1.696-0.859-7.466-7.342-10.489c-9.982-4.654-20.563-4.482-30.412,0.635l-22.022-3.879
			c-1.35-0.234-2.618,0.67-2.875,1.975c-0.259,1.322,0.602,2.629,1.919,2.912l16.055,3.469c-0.556,0.43-1.08,0.852-1.588,1.279
			l-0.289,0.254l-34.5-6.01c-1.358-0.236-2.622,0.676-2.874,1.986c-0.252,1.328,0.617,2.631,1.939,2.906l29.654,6.166
			l-17.437,15.232l-20.261-21.766c-2.479-2.341-6.723-2.69-9.031-2.69c-0.99,0-1.723,0.063-2.001,0.091
			c-0.378,0.033-9.287,0.85-11.45,4.152c-0.508,0.775-0.609,1.635-0.312,2.51l9.992,41.508l-45.326,40.026
			c-0.41,0.349-10.038,8.644-9.698,17.773c0.022,0.596,0.094,1.216,0.213,1.845c0.1,0.521,0.232,1.037,0.395,1.532
			c0.168,0.515,0.374,1.026,0.611,1.521c1.17,2.446,3.184,4.705,5.987,6.714c5.053,3.621,10.706,5.457,16.804,5.457
			c15.069,0,27.368-10.855,27.476-10.965l-0.004-0.003l22.812-18.53l24.967,7.109c32.071,9.14,71.362,20.377,76.423,22.007
			c6.077,1.952,12.795,12.966,15.836,19.223l-1.544,2.032l-40.161-7.076c-1.488-0.269-2.883,0.731-3.164,2.169
			c-0.285,1.454,0.66,2.892,2.109,3.204l36.516,7.892l-2.824,3.716l-51.483-8.968c-1.495-0.254-2.884,0.745-3.159,2.185
			c-0.279,1.461,0.678,2.896,2.134,3.196l47.698,9.919l-55.367,72.871l-107.125-18.873c-1.49-0.268-2.883,0.73-3.165,2.17
			c-0.284,1.454,0.661,2.893,2.11,3.205l101.734,21.981l-4.079,5.368l-142.765-24.866c-1.492-0.255-2.884,0.746-3.159,2.187
			c-0.278,1.46,0.679,2.893,2.134,3.194l138.539,28.81c-2.835,6.484-3.322,12.271-1.521,18.213
			c3.731,8.791,10.379,13.248,19.757,13.248c13.388,0,30.381-9.482,41.279-18.877c0.945-0.803,136.415-120.841,151.608-135.522
			c3.025,0.049,6.054,0.073,9.003,0.073c22.752,0,40.249-1.415,50.919-2.603c14.746-1.637,33.586-6.257,50.397-12.359
			c28.67-10.41,28.67-16.183,28.67-18.647c0-9.042-17.639-20.559-55.509-36.241l-0.391-0.162c-2.071-0.857-4.093-1.695-6.037-2.505
			c-3.322-1.388-11.707-4.448-12.994-4.917l51.013-73.671c8.141-12.867,12.271-22.977,12.62-30.893
			C638.214,187.875,645.116,178.56,645.448,167.609z M318.37,264.359l-10.332,8.378c-2.503,2.035-5.001,2.942-8.104,2.942
			c-2.329,0-4.972-0.493-8.222-1.233c-1.026-0.234-1.938-0.38-2.699-0.432l-3.771-0.991c-1.065-0.232-1.69-0.687-1.857-1.349
			c-0.673-2.67,5.884-8.308,9.803-11.678l4.866-4.052c5.096-4.284,13.959-8.837,20.35-8.837c2.177,0,6.595,0.759,7.732,3.628
			C327.346,253.787,324.724,258.379,318.37,264.359z M566.647,220.924c-0.04,0.242-0.051,0.498-0.03,0.766
			c0.087,1.102,0.845,2.53,2.68,2.928l20.33,4.973l-1.762,2.402l-30.521-4.592c-0.227-0.036-0.452-0.055-0.668-0.055
			c-1.848,0-2.939,1.282-3.216,2.637c-0.04,0.245-0.05,0.5-0.03,0.763c0.092,1.154,0.854,2.532,2.709,2.936l26.109,5.978
			l-2.051,2.797l-37.221-5.6c-0.227-0.036-0.452-0.055-0.668-0.055c-1.847,0-2.938,1.281-3.217,2.637
			c-0.039,0.245-0.049,0.5-0.029,0.763c0.092,1.155,0.854,2.532,2.709,2.935l32.479,7.436l-15.219,20.764
			c-1.954,2.494-6.341,3.867-12.352,3.867c-3.643,0-7.772-0.513-12.257-1.521l-30.91-8.245c-0.254-0.063-0.23-0.525-0.219-0.576
			c0.11-0.502,0.554-0.887,1.073-0.936c0.055-0.004,0.104-0.007,0.153-0.007c0.082,0,0.153,0.007,0.252,0.028l28.676,4.552
			c0.458,0.108,2.873,0.649,5.426,0.649c2.966,0,5.027-0.703,6.127-2.09l0.065-0.107c0.117-0.263,1.13-2.6,0.672-3.669
			c-1.216-2.831-6.473-3.71-6.661-3.739l-14.39-3.365c-1.021-0.273-1.263-0.711-1.357-1.016c-0.758-2.463,5.255-9.442,21.325-28.097
			l1.225-1.423c2.973-3.451,6.219-7.219,9.808-11.41l3.937-4.604c2.633-2.747,4.968-5.111,7.139-7.228
			c1.396-1.361,2.75-2.642,4.022-3.806c1.664-1.521,3.244-2.89,4.696-4.067c3.099-2.516,5.796-4.318,8.245-5.512
			c2.584-1.258,4.965-1.87,7.28-1.87c3.527,0,6.825,1.317,11.001,2.987l1.028,0.409c1.202,0.477,3.343,1.733,4.175,4.792
			c0.29,1.066,0.387,2.277,0.288,3.602c-0.041,0.522-0.111,1.064-0.209,1.608c-0.1,0.552-0.227,1.114-0.377,1.669
			c-1.257,4.619-4.368,10.141-9.257,16.422l-2.445,3.336l-24.682-3.623c-0.227-0.037-0.45-0.056-0.668-0.056
			C568.016,218.29,566.924,219.572,566.647,220.924z M540.515,288.61c-0.21,1.087-1.192,1.817-2.445,1.817
			c-0.229,0-0.459-0.023-0.673-0.065l-41.102-9.409c-0.487-0.106-0.748-0.342-0.776-0.701c-0.007-0.086,0.003-0.147,0.003-0.147
			c0.026-0.132,0.161-0.562,0.758-0.562c0.077,0,0.17,0.006,0.277,0.023l41.521,6.245
			C539.428,286.067,540.757,287.319,540.515,288.61z M460.977,350.901c3.147-3.379,46.173-4.366,66.851-4.841l0.996-0.023
			c3.798-0.088,6.813-0.158,8.797-0.229c5.382-0.188,8.531-1.01,9.106-2.378c0.285-0.676-0.136-1.284-0.256-1.391
			c-1.854-2.33-7.5-2.745-22.477-2.745c-3.64,0-7.826,0.023-12.641,0.057c-1.225,0.008-2.459,0.012-3.701,0.012
			c-8.492,0-17.589-0.181-26.153-0.377c-19.103-0.452-38.813-1.332-58.579-2.614c-42.089-3.173-85.109-8.885-127.868-16.977
			l-0.57-0.107c-5.671-1.074-11.297-2.181-16.718-3.289l-13.214-2.605l-27.98,23.062c-0.606,0.538-1.782,0.46-2.323-0.153
			c-0.292-0.33-0.438-0.756-0.41-1.197c0.028-0.44,0.226-0.845,0.568-1.147l24.9-23.514l6.967-6.146l11.192-0.294l17.959-0.332
			l0.068-0.075c4.824-0.086,9.837-0.153,15.33-0.21l0.693-0.008c8.626-0.085,17.318-0.127,26.575-0.127
			c16.287,0,31.925,0.131,45.113,0.26c-3.334,2.51-6.263,5.265-8.711,8.194c-5.355-0.292-23.421-1.224-35.652-1.224
			c-4.617,0-10.358,0.145-11.495,0.832l-0.6,0.362l0.538,0.449c0.03,0.025,0.067,0.054,0.12,0.09l-0.023,0.072l0.123,0.195
			c0.242,0.389,1.104,0.868,2.196,1.223c14.65,4.597,30.504,8.145,49.894,11.167c15.672,2.426,32.314,4.252,50.88,5.583
			c9.44,0.659,21.185,1.022,33.071,1.022c16.616,0,71.303-0.83,77.369-11.511c0.641-1.126,1.389-2.838,0.504-4.688
			c-2.261-4.716-14.3-8.816-36.795-12.531c1.109-0.069,3.062-0.161,5.711-0.161c5.764,0,15.006,0.428,26.304,2.467
			c19.747,3.559,47.941,14.887,50.159,15.786c-2.29,3.863-5.372,10.775-7.217,21.952c-0.096,0.573-0.185,1.112-0.258,1.622
			c-0.7,2.687-3.19,7.282-12.008,7.879c-0.268,0.019-28.551,1.901-49.993,2.282c-4.274,0.073-8.817,0.111-13.139,0.111
			c-40.082,0-43.323-2.633-43.362-3.439C460.817,351.176,460.83,351.06,460.977,350.901z M427.829,313.906
			c0.876-1.844-0.096-5.423-0.62-7.355c-0.755-2.778-2.387-4.129-4.987-4.129c-1.724,0-3.754,0.57-6.602,1.37
			c-2.116,0.598-4.515,1.274-7.37,1.875l-0.547,0.115c-1.85,0.396-4.151,0.89-5.989,0.89c-1.593,0-2.951-0.336-3.098-0.776
			c-0.096-0.266-0.319-0.889,1.132-1.511c23.953-11.238,55.531-12.111,64.639-12.111c4.5,0,7.619,0.177,9.039,0.343
			c2.233,0.254,11.869,3.392,18.217,14.103c0.038,0.062,0.089,0.143,0.152,0.239c0.737,1.143,1.369,2.421,0.462,3.239
			c-2.634,2.384-16.45,14.288-29.772,14.543l-0.274,0.002c-1.775,0-3.235-0.334-4.128-0.952l-0.127-0.079
			c-0.601-0.338-1.006-0.912-1.236-1.754c-1.366-4.959,2.538-16.187,4.015-18.825c0.424-0.485,1.746-2.211,0.982-4.02
			c-0.959-2.271-4.254-2.534-6.649-2.534c-0.408,0-0.84,0.008-1.305,0.025c-17.172,0.712-22.137,1.864-22.137,5.139l-0.001,0.226
			c-0.007,0.567-0.018,1.426,0.286,2.608c2.478,9.625,1.801,15.184-2.001,16.518c-0.561,0.159-7.736,0.814-11.774,0.814
			c-6.515,0-14.244-0.225-20.11-0.577l-0.501-0.094c-1.447-0.272-2.473-0.537-2.492-1.476c-0.005-0.261,0.091-0.493,0.285-0.691
			c0.574-0.587,1.854-0.795,2.774-0.795c0.228,0,0.723,0.022,1.453,0.056c1.696,0.082,4.854,0.233,8.436,0.233
			C419.687,318.564,426.366,316.997,427.829,313.906z M402.668,414.809c-0.244,1.28-1.395,2.174-2.798,2.174
			c-0.23,0-0.457-0.021-0.646-0.059l-27.164-7.045c-0.604-0.131-0.807-0.584-0.74-0.944c0.059-0.298,0.309-0.646,0.82-0.646
			c0.06,0,0.133,0.006,0.233,0.022l27.705,3.229c0.894,0.17,1.686,0.681,2.174,1.402
			C402.642,413.513,402.79,414.175,402.668,414.809z M451.358,372.313c0.044,0.988-0.769,1.716-2.022,1.811
			c-13.235,0.991-26.647,3.593-37.455,5.688c-8.835,1.712-15.813,3.064-20.025,3.064c-1.604,0-3.812-0.166-4.473-1.599
			c-1.448-3.135-3.277-6.508-4.892-9.483c-4.029-7.421-5.903-11.046-4.488-12.364c0.63-0.584,1.375-0.88,2.215-0.88
			c0.552,0,1.429,0.14,2.542,0.84c20.115,8.681,61.888,11.287,65.742,11.287h0.689C450.464,370.688,451.315,371.329,451.358,372.313
			z M388.479,429.202c-0.244,1.288-1.369,2.188-2.734,2.188c-0.198,0-0.4-0.019-0.565-0.049l-22.951-6.242
			c-0.142-0.031-0.268-0.084-0.376-0.16c-0.258-0.177-0.389-0.483-0.335-0.775c0.074-0.383,0.411-0.65,0.818-0.65
			c0.056,0,0.12,0.005,0.209,0.017l23.49,2.426c0.829,0.158,1.545,0.626,2.015,1.319
			C388.452,427.867,388.604,428.551,388.479,429.202z M360.103,457.975c-0.252,1.315-1.312,2.234-2.577,2.234
			c-0.16,0-0.319-0.015-0.507-0.049l-14.462-4.622c-0.46-0.113-0.736-0.506-0.657-0.929c0.073-0.38,0.398-0.647,0.793-0.654
			l15.238,0.834c0.719,0.132,1.311,0.516,1.713,1.107C360.068,456.521,360.236,457.278,360.103,457.975z M374.29,443.587
			c-0.246,1.303-1.34,2.212-2.659,2.212c-0.177,0-0.357-0.017-0.49-0.041l-18.741-5.44c-0.476-0.109-0.764-0.503-0.677-0.958
			c0.06-0.249,0.227-0.45,0.459-0.551c0.122-0.052,0.229-0.075,0.346-0.075c0.052,0,0.105,0.004,0.195,0.017l19.263,1.622
			c0.761,0.145,1.42,0.577,1.856,1.218C374.26,442.206,374.419,442.914,374.29,443.587z M332.954,506.169l-0.186,0.155
			c-10.569,8.321-19.775,12.904-25.922,12.904c-2.085,0-3.787-0.533-5.06-1.584c-5.301-4.388-5.737-6.708,2.154-19.43l0.701-0.997
			c-0.768,2.344-0.604,5.485,3.171,8.629c3.82,3.186,10.489,1.325,21.071-5.964c34.592-23.836,102.459-86.042,120.654-104.831
			l18.022-16.423c1.1-1.102,3.128-2.287,4.981-2.287c0.821,0,1.533,0.231,2.115,0.687c1.304,1.021,0.745,2.107-0.116,3.416
			l-0.179,0.258C419.333,432.851,348.827,492.932,332.954,506.169z M245.85,291.262l23.815-1.624
			c0.527,0.54,1.127,1.074,1.688,1.545c-9.061,0.273-16.29,0.616-25.27,1.062L245.85,291.262z M237.639,256.645
			c0.31-0.426,1.026-0.65,2.074-0.65c1.924,0.004,9.852,9.285,15.657,16.083l0.067,0.078c3.026,3.543,6.147,7.196,8.838,10.109
			l-19.979,1.344l-6.805-25.698C237.491,257.902,237.266,257.158,237.639,256.645z M219.569,321.283l-21.032,17.727
			c-0.434,0.391-1.182,0.352-1.586-0.104c-0.199-0.223-0.299-0.512-0.281-0.815c0.018-0.299,0.152-0.575,0.395-0.792l19.787-19.027
			c0.357-0.319,0.836-0.496,1.346-0.496c0.601,0,1.157,0.239,1.528,0.655c0.358,0.404,0.539,0.925,0.508,1.466
			S219.961,320.933,219.569,321.283z M206.96,353.691c3.548,0,7.006-0.689,10.303-2.058c0.264-0.126,0.548-0.098,0.734,0.063
			l0.084,0.061c0.11,0.062,0.18,0.122,0.219,0.19c0.016,0.028,0.063,0.114,0.012,0.272c-0.059,0.179-0.218,0.343-0.439,0.444
			c-6.398,3.16-14.322,3.76-21.182,1.64c-0.512-0.194-0.883-0.52-1.047-0.919c-0.043-0.106-0.068-0.217-0.09-0.431
			c-0.072-0.295-0.028-0.558,0.135-0.803c0.15-0.225,0.447-0.338,0.883-0.338c0.352,0,0.676,0.077,0.839,0.119
			C200.463,353.1,203.677,353.691,206.96,353.691z M609.64,351.084c0.003,0.366-0.221,0.641-0.569,0.698l-0.124,0.013
			c-0.319,0-0.524-0.253-0.64-0.466c-1.696-3.111-1.835-3.365-2.215-5.084l-0.13-0.587l-0.554,0.235
			c-3.649,1.547-7.377,2.679-11.692,3.989l-0.581,0.177c-0.775,0.236-1.572,0.479-2.396,0.732
			c1.587-15.433,5.614-22.643,7.347-25.104c5.493,2.423,10.041,4.551,13.901,6.504c3.492,1.769,6.529,3.455,9.033,5.015
			c-1.035,0.753-2.307,1.574-3.783,2.442l-0.233,0.137l-0.012,0.271c-0.071,1.567-0.103,2.913-0.095,4.082
			c-0.02,0.335-0.232,0.573-0.554,0.634c-0.035,0.005-0.141,0.015-0.172,0.016c-0.266,0-0.481-0.128-0.564-0.312
			c-0.307-0.826-0.608-1.695-0.942-2.723l-0.183-0.563l-0.525,0.275c-1.327,0.695-2.748,1.397-4.222,2.085l-0.288,0.134
			l-0.001,0.317C609.437,346.594,609.5,348.92,609.64,351.084z"/>
	</g>
	<path fill="#0C3542" d="M179.429,379.123l49.175,10.624c0.263,0.055,0.538,0.083,0.818,0.083c1.846,0,3.368-1.23,3.704-2.992
		c0.21-1.106-0.12-2.238-0.905-3.105c-0.592-0.652-1.402-1.104-2.288-1.271l-49.449-8.713c-1.49-0.262-2.883,0.733-3.164,2.171
		C177.035,377.373,177.98,378.811,179.429,379.123z"/>
	<path fill="#0C3542" d="M96.025,38.01l-34.639,3.977c-1.344,0.153-2.332,1.373-2.204,2.721c0.123,1.29,1.192,2.263,2.487,2.263
		c0.062,0,0.127-0.003,0.189-0.007l34.924-2.639c0.092-0.008,0.183-0.02,0.275-0.037c1.805-0.342,3.006-2.024,2.68-3.75
		c-0.289-1.514-1.594-2.571-3.17-2.571C96.376,37.966,96.185,37.982,96.025,38.01z"/>
	<path fill="#0C3542" d="M102.015,96.354l-34.646,3.979c-1.342,0.153-2.331,1.373-2.203,2.721c0.123,1.29,1.192,2.263,2.486,2.263
		c0.063,0,0.127-0.003,0.191-0.007l34.923-2.639c0.091-0.008,0.181-0.02,0.269-0.035c0.887-0.166,1.686-0.686,2.191-1.426
		c0.473-0.691,0.648-1.518,0.495-2.328c-0.286-1.488-1.62-2.57-3.172-2.57C102.366,96.311,102.179,96.326,102.015,96.354z"/>
	<path fill="#0C3542" d="M73.06,52.781c-1.342,0.153-2.331,1.373-2.203,2.721c0.123,1.29,1.192,2.263,2.486,2.263
		c0.063,0,0.127-0.003,0.191-0.007l26.658-2.016c0.092-0.007,0.184-0.02,0.273-0.036c0.83-0.155,1.577-0.644,2.051-1.337
		c0.448-0.658,0.615-1.446,0.469-2.219c-0.271-1.416-1.535-2.443-3.003-2.443c-0.168,0-0.338,0.014-0.487,0.039L73.06,52.781z"/>
	<path fill="#0C3542" d="M98.035,107.975c-0.21,0-0.424,0.018-0.613,0.051l-49.084,5.635c-1.343,0.154-2.331,1.375-2.204,2.721
		c0.123,1.291,1.193,2.264,2.487,2.264c0.063,0,0.127-0.002,0.19-0.008l49.452-3.736c0.092-0.007,0.182-0.02,0.274-0.036
		c0.812-0.153,1.565-0.577,2.122-1.19c0.734-0.811,1.043-1.867,0.847-2.9C101.197,109.152,99.738,107.975,98.035,107.975z"/>
	<path fill="#0C3542" d="M24.313,37.92c0.062,0,0.127-0.002,0.189-0.008l69.542-5.254c0.091-0.007,0.182-0.02,0.273-0.036
		c0.927-0.175,1.786-0.658,2.421-1.358c0.816-0.902,1.161-2.07,0.946-3.208c-0.35-1.829-1.944-3.107-3.88-3.107
		c-0.27,0-0.521,0.022-0.737,0.062L24.03,32.936c-1.344,0.154-2.332,1.375-2.204,2.721C21.949,36.947,23.018,37.92,24.313,37.92z"/>
</g>
</svg>
