<svg id="Layer_1" data-name="Layer 1" xmlns="http://www.w3.org/2000/svg" viewBox="0 0 817.51 189.59"><title>capa.logo</title><path d="M69.31,282.79q19-19.38,48.26-19.38,39.19,0,57.32,26,10,14.6,10.75,29.29H152.83q-3.12-11.29-8-17-8.76-10.23-26-10.23-17.53,0-27.65,14.43T81.05,346.7q0,26.42,10.68,39.57t27.14,13.16q16.88,0,25.73-11.3,4.91-6.06,8.13-18.21h32.59q-4.22,25.68-21.55,41.75t-44.41,16.09q-33.51,0-52.69-21.73T47.49,346.17Q47.49,305.05,69.31,282.79Z" transform="translate(-47.49 -263.41)"/><path d="M253.68,266.39H290.8l55.55,157H310.77l-10.36-32.27H242.6L232,423.39H197.64Zm-2.16,97.67h40.21L271.9,302.29Z" transform="translate(-47.49 -263.41)"/><path d="M468.67,355.44q-13.79,11.49-39.38,11.5H396.6v56.45H364v-157h67.41q23.31,0,37.17,12.14t13.86,37.6Q482.45,343.94,468.67,355.44Zm-25-56.56q-6.24-5.22-17.46-5.22H396.6v46.23h29.57q11.22,0,17.46-5.65t6.23-17.89Q449.86,304.1,443.63,298.88Z" transform="translate(-47.49 -263.41)"/><path d="M534.52,266.39h37.12l55.54,157H591.61l-10.36-32.27H523.43l-10.64,32.27H478.48Zm-2.16,97.67h40.21l-19.84-61.77Z" transform="translate(-47.49 -263.41)"/><path d="M665.65,267.77a10.8,10.8,0,0,1,8.07-3.24q6.54,0,9.58,4.34a9.5,9.5,0,0,1,1.79,4.9h-5.48a7.57,7.57,0,0,0-1.34-2.85,6,6,0,0,0-9,.7,11.86,11.86,0,0,0-1.69,6.83c0,2.94.6,5.15,1.79,6.61a5.58,5.58,0,0,0,4.53,2.2,5.18,5.18,0,0,0,4.31-1.88,8.47,8.47,0,0,0,1.35-3.05H685a11.83,11.83,0,0,1-3.6,7A10.49,10.49,0,0,1,674,292a11.15,11.15,0,0,1-8.81-3.63q-3.21-3.66-3.2-10Q662,271.49,665.65,267.77Z" transform="translate(-47.49 -263.41)"/><path d="M699.84,271.41l.44,0v5.19l-.86-.07h-.6q-3.06,0-4.11,2a7.64,7.64,0,0,0-.59,3.45v9.28H689V271.86h4.84v3.39a10.73,10.73,0,0,1,2-2.66,5.59,5.59,0,0,1,3.7-1.19Z" transform="translate(-47.49 -263.41)"/><path d="M710.94,279.47a8,8,0,0,0,2-.45,1.53,1.53,0,0,0,1.1-1.44,1.7,1.7,0,0,0-.84-1.65,5.36,5.36,0,0,0-2.47-.45,3.22,3.22,0,0,0-2.58.89,3.67,3.67,0,0,0-.72,1.78h-4.89A7.38,7.38,0,0,1,704,274c1.34-1.7,3.66-2.56,6.93-2.56a12.29,12.29,0,0,1,5.69,1.27q2.48,1.26,2.48,4.77v8.9c0,.61,0,1.36,0,2.24a2.73,2.73,0,0,0,.3,1.35,1.82,1.82,0,0,0,.75.59v.75h-5.52a5.9,5.9,0,0,1-.32-1.11,11.07,11.07,0,0,1-.14-1.17,10.48,10.48,0,0,1-2.44,1.94,7.32,7.32,0,0,1-3.72.94,6.43,6.43,0,0,1-4.38-1.5,5.37,5.37,0,0,1-1.73-4.27,5.54,5.54,0,0,1,2.78-5.18,12.49,12.49,0,0,1,4.49-1.24Zm3.1,2.36a5.68,5.68,0,0,1-1,.49,7.94,7.94,0,0,1-1.36.35l-1.15.21a7.28,7.28,0,0,0-2.33.7,2.31,2.31,0,0,0-1.2,2.15,2.25,2.25,0,0,0,.73,1.88,2.82,2.82,0,0,0,1.78.58,5.28,5.28,0,0,0,3.06-1c.94-.64,1.42-1.81,1.46-3.51Z" transform="translate(-47.49 -263.41)"/><path d="M728.74,269.55H723.6v-4.68h5.14Zm-5.14,2.31h5.14v19.41H723.6Z" transform="translate(-47.49 -263.41)"/><path d="M743.25,271.85a6.08,6.08,0,0,1,3,2.81v-2.8h5v18.41a10.25,10.25,0,0,1-1.27,5.66c-1.44,2.18-4.22,3.28-8.33,3.28a11.39,11.39,0,0,1-6.07-1.46,5.43,5.43,0,0,1-2.6-4.36h5.52a2.28,2.28,0,0,0,.7,1.28,4.29,4.29,0,0,0,2.76.69c1.82,0,3.05-.61,3.66-1.83a9.18,9.18,0,0,0,.61-3.95v-1.25a5.68,5.68,0,0,1-5.5,3,7.42,7.42,0,0,1-6-2.63,10.61,10.61,0,0,1-2.24-7.11,12,12,0,0,1,2.15-7.27,7.1,7.1,0,0,1,6.1-3A6.59,6.59,0,0,1,743.25,271.85ZM745,285.76a6.23,6.23,0,0,0,1.22-4.28,6.53,6.53,0,0,0-1.16-4.2,3.76,3.76,0,0,0-3.11-1.45,3.68,3.68,0,0,0-3.67,2.51,9.05,9.05,0,0,0-.53,3.3,7.55,7.55,0,0,0,.57,3A3.69,3.69,0,0,0,742,287.1,3.92,3.92,0,0,0,745,285.76Z" transform="translate(-47.49 -263.41)"/><path d="M670.65,308.78h6.2L686.13,335h-5.94l-1.73-5.39H668.8L667,335h-5.74Zm-.36,16.32H677l-3.32-10.33Z" transform="translate(-47.49 -263.41)"/><path d="M694.28,313.3h-5.15v-4.68h5.15Zm-5.15,2.31h5.15V335h-5.15Z" transform="translate(-47.49 -263.41)"/><path d="M710,315.16l.44,0v5.2c-.32,0-.61-.06-.86-.07l-.6,0c-2,0-3.42.67-4.12,2a7.77,7.77,0,0,0-.58,3.45V335h-5.11v-19.4H704V319a10.83,10.83,0,0,1,2-2.65,5.59,5.59,0,0,1,3.7-1.19Z" transform="translate(-47.49 -263.41)"/><path d="M729.7,317.69c1.58,1.68,2.37,4.13,2.37,7.37q0,5.13-2.32,7.82a7.55,7.55,0,0,1-6,2.69,6.24,6.24,0,0,1-3.86-1.16,7.21,7.21,0,0,1-1.65-1.87v10.11h-5v-27h4.86v2.87a8.15,8.15,0,0,1,1.75-2,6.54,6.54,0,0,1,4-1.3A7.71,7.71,0,0,1,729.7,317.69Zm-3.9,3.65a3.6,3.6,0,0,0-3.35-1.72,3.81,3.81,0,0,0-3.83,2.61,9.85,9.85,0,0,0-.54,3.53c0,2.25.6,3.84,1.81,4.75a4.2,4.2,0,0,0,2.56.8,3.7,3.7,0,0,0,3.26-1.64,8.54,8.54,0,0,0,.09-8.33Z" transform="translate(-47.49 -263.41)"/><path d="M751.83,332.64c-1.64,2-4.12,3-7.46,3s-5.82-1-7.46-3a12.06,12.06,0,0,1,0-14.57C738.55,316,741,315,744.37,315s5.82,1,7.46,3.08a12,12,0,0,1,0,14.57Zm-4.06-2.8a9.08,9.08,0,0,0,0-9,4.51,4.51,0,0,0-6.84,0,9,9,0,0,0,0,9,4.49,4.49,0,0,0,6.84,0Z" transform="translate(-47.49 -263.41)"/><path d="M768.69,315.16l.44,0v5.2c-.32,0-.6-.06-.85-.07l-.61,0q-3.06,0-4.11,2a7.75,7.75,0,0,0-.59,3.45V335h-5.11v-19.4h4.85V319a10.85,10.85,0,0,1,2-2.65,5.61,5.61,0,0,1,3.7-1.19Z" transform="translate(-47.49 -263.41)"/><path d="M770.11,319.4v-3.61h2.71v-5.41h5v5.41H781v3.61h-3.15v10.26a2.3,2.3,0,0,0,.3,1.48,3.27,3.27,0,0,0,1.85.3h.49l.51,0v3.79l-2.41.09q-3.58.12-4.91-1.24a3.73,3.73,0,0,1-.85-2.69v-12Z" transform="translate(-47.49 -263.41)"/><path d="M682.22,367.4q-2.31,1.94-6.58,1.93h-5.47v9.43h-5.44V352.52H676a9.13,9.13,0,0,1,6.22,2c1.54,1.36,2.31,3.45,2.31,6.29Q684.52,365.48,682.22,367.4ZM678,358a4.39,4.39,0,0,0-2.91-.87h-5v7.73h5a4.16,4.16,0,0,0,2.91-.95,3.83,3.83,0,0,0,1.05-3A3.61,3.61,0,0,0,678,358Z" transform="translate(-47.49 -263.41)"/><path d="M693.72,357h-5.14v-4.68h5.14Zm-5.14,2.32h5.14v19.4h-5.14Z" transform="translate(-47.49 -263.41)"/><path d="M703.82,378.76h-5.07V352.52h5.07Z" transform="translate(-47.49 -263.41)"/><path d="M725,376.39q-2.46,3-7.46,3c-3.34,0-5.82-1-7.46-3a12,12,0,0,1,0-14.58c1.64-2.05,4.12-3.07,7.46-3.07s5.82,1,7.46,3.07a12.07,12.07,0,0,1,0,14.58Zm-4.06-2.81a9.07,9.07,0,0,0,0-9,4,4,0,0,0-3.42-1.57A4.07,4.07,0,0,0,714,364.6a9,9,0,0,0,0,9,4.06,4.06,0,0,0,3.43,1.59A4,4,0,0,0,720.89,373.58Z" transform="translate(-47.49 -263.41)"/><path d="M729,363.15v-3.61h2.71v-5.41h5v5.41h3.15v3.61h-3.15V373.4a2.34,2.34,0,0,0,.3,1.49,3.3,3.3,0,0,0,1.85.29h.49l.51,0v3.79l-2.41.09c-2.39.08-4-.33-4.91-1.25a3.7,3.7,0,0,1-.85-2.69V363.15Z" transform="translate(-47.49 -263.41)"/><path d="M747.11,372.57a3.38,3.38,0,0,0,.7,1.92c.63.68,1.8,1,3.5,1a5.34,5.34,0,0,0,2.39-.44,1.49,1.49,0,0,0,.17-2.64,30.06,30.06,0,0,0-5.3-1.53,10.9,10.9,0,0,1-4.66-2,4.42,4.42,0,0,1-1.36-3.49,6.06,6.06,0,0,1,2.12-4.62,8.49,8.49,0,0,1,6-1.93,10.92,10.92,0,0,1,5.93,1.45c1.53,1,2.4,2.64,2.63,5h-5.07a3.07,3.07,0,0,0-.56-1.55,3.47,3.47,0,0,0-2.85-1,4.16,4.16,0,0,0-2.37.51,1.49,1.49,0,0,0-.7,1.21,1.32,1.32,0,0,0,.75,1.27,32.5,32.5,0,0,0,5.29,1.4,9.81,9.81,0,0,1,4.55,2.16,4.91,4.91,0,0,1,1.49,3.65,5.88,5.88,0,0,1-2.15,4.71q-2.14,1.81-6.64,1.82c-3.06,0-5.31-.64-6.77-1.93a6.27,6.27,0,0,1-2.18-4.92Z" transform="translate(-47.49 -263.41)"/><path d="M670.65,396.27h6.2l9.28,26.24h-5.94l-1.73-5.39H668.8L667,422.51h-5.74Zm-.36,16.32H677l-3.32-10.32Z" transform="translate(-47.49 -263.41)"/><path d="M693,416.31a3.39,3.39,0,0,0,.69,1.93c.64.67,1.81,1,3.51,1a5.48,5.48,0,0,0,2.39-.44,1.5,1.5,0,0,0,.17-2.64,30.64,30.64,0,0,0-5.31-1.53,11.08,11.08,0,0,1-4.66-2.05,4.43,4.43,0,0,1-1.35-3.49,6,6,0,0,1,2.11-4.61,8.51,8.51,0,0,1,6-1.94,11,11,0,0,1,5.93,1.45q2.3,1.46,2.64,5H700a2.94,2.94,0,0,0-.55-1.55,3.49,3.49,0,0,0-2.86-1,4.14,4.14,0,0,0-2.36.52,1.49,1.49,0,0,0-.71,1.21,1.32,1.32,0,0,0,.75,1.26,31.19,31.19,0,0,0,5.3,1.41A9.63,9.63,0,0,1,704.1,413a4.86,4.86,0,0,1,1.5,3.64,5.88,5.88,0,0,1-2.15,4.71c-1.43,1.22-3.65,1.83-6.64,1.83s-5.32-.65-6.77-1.93a6.28,6.28,0,0,1-2.19-4.93Z" transform="translate(-47.49 -263.41)"/><path d="M713.27,416.31a3.38,3.38,0,0,0,.7,1.93c.63.67,1.8,1,3.51,1a5.43,5.43,0,0,0,2.38-.44,1.5,1.5,0,0,0,.18-2.64,30.64,30.64,0,0,0-5.31-1.53,11,11,0,0,1-4.66-2.05,4.44,4.44,0,0,1-1.36-3.49,6,6,0,0,1,2.12-4.61,8.49,8.49,0,0,1,5.95-1.94,11,11,0,0,1,5.93,1.45q2.29,1.46,2.63,5h-5.07a3,3,0,0,0-.56-1.55,3.46,3.46,0,0,0-2.85-1,4.15,4.15,0,0,0-2.37.52,1.48,1.48,0,0,0-.7,1.21,1.32,1.32,0,0,0,.75,1.26,30.93,30.93,0,0,0,5.29,1.41,9.67,9.67,0,0,1,4.55,2.16,4.86,4.86,0,0,1,1.5,3.64,5.88,5.88,0,0,1-2.15,4.71c-1.44,1.22-3.65,1.83-6.65,1.83s-5.31-.65-6.77-1.93a6.31,6.31,0,0,1-2.18-4.93Z" transform="translate(-47.49 -263.41)"/><path d="M745.79,420.13c-1.63,2-4.12,3-7.45,3s-5.83-1-7.46-3a12,12,0,0,1,0-14.57q2.45-3.07,7.46-3.08c3.33,0,5.82,1,7.45,3.08a12,12,0,0,1,0,14.57Zm-4-2.8a9.07,9.07,0,0,0,0-9,4.5,4.5,0,0,0-6.85,0,9,9,0,0,0,0,9,4.5,4.5,0,0,0,6.85,0Z" transform="translate(-47.49 -263.41)"/><path d="M763.49,410.07a4.56,4.56,0,0,0-.73-2,3.08,3.08,0,0,0-2.66-1.18,3.5,3.5,0,0,0-3.52,2.55,10.63,10.63,0,0,0-.5,3.59,9.73,9.73,0,0,0,.5,3.42,3.39,3.39,0,0,0,3.43,2.42,3,3,0,0,0,2.53-1,4.71,4.71,0,0,0,.91-2.49h5.18a8.49,8.49,0,0,1-1.67,4.38,8.15,8.15,0,0,1-7.08,3.33q-4.68,0-6.89-2.78a11.17,11.17,0,0,1-2.21-7.2q0-5,2.44-7.77a8.51,8.51,0,0,1,6.74-2.78,10.15,10.15,0,0,1,6,1.64q2.33,1.64,2.76,5.79Z" transform="translate(-47.49 -263.41)"/><path d="M777.37,400.79h-5.14v-4.68h5.14Zm-5.14,2.32h5.14v19.4h-5.14Z" transform="translate(-47.49 -263.41)"/><path d="M790,410.71a8,8,0,0,0,2-.45,1.52,1.52,0,0,0,1.09-1.44,1.72,1.72,0,0,0-.84-1.65,5.34,5.34,0,0,0-2.46-.45,3.23,3.23,0,0,0-2.58.89,3.67,3.67,0,0,0-.72,1.78h-4.9a7.39,7.39,0,0,1,1.43-4.18q2-2.56,6.94-2.57a12.25,12.25,0,0,1,5.68,1.27q2.49,1.26,2.49,4.77v8.9c0,.62,0,1.36,0,2.24a2.75,2.75,0,0,0,.31,1.35,1.72,1.72,0,0,0,.74.59v.75H793.7a4.78,4.78,0,0,1-.32-1.1c-.06-.35-.11-.74-.15-1.18a10.23,10.23,0,0,1-2.43,1.94,7.36,7.36,0,0,1-3.73.94,6.43,6.43,0,0,1-4.37-1.5,5.31,5.31,0,0,1-1.73-4.26,5.5,5.5,0,0,1,2.78-5.18,12.21,12.21,0,0,1,4.48-1.25Zm3.1,2.36a4.72,4.72,0,0,1-1,.49,8.19,8.19,0,0,1-1.36.35l-1.16.21a7.64,7.64,0,0,0-2.33.7A2.31,2.31,0,0,0,786,417a2.28,2.28,0,0,0,.73,1.88,2.76,2.76,0,0,0,1.78.58,5.34,5.34,0,0,0,3.07-1,4.07,4.07,0,0,0,1.45-3.51Z" transform="translate(-47.49 -263.41)"/><path d="M800.57,406.9v-3.62h2.7v-5.41h5v5.41h3.15v3.62h-3.15v10.25c0,.8.1,1.29.31,1.49a3.37,3.37,0,0,0,1.85.29h.49l.5,0v3.79l-2.4.09c-2.4.08-4-.34-4.91-1.25a3.71,3.71,0,0,1-.86-2.69V406.9Z" transform="translate(-47.49 -263.41)"/><path d="M819.92,400.79h-5.15v-4.68h5.15Zm-5.15,2.32h5.15v19.4h-5.15Z" transform="translate(-47.49 -263.41)"/><path d="M841,420.13c-1.64,2-4.12,3-7.46,3s-5.82-1-7.46-3a12.06,12.06,0,0,1,0-14.57q2.46-3.07,7.46-3.08c3.34,0,5.82,1,7.46,3.08a12,12,0,0,1,0,14.57Zm-4.06-2.8a9.07,9.07,0,0,0,0-9,4.49,4.49,0,0,0-6.84,0,9,9,0,0,0,0,9,4.49,4.49,0,0,0,6.84,0Z" transform="translate(-47.49 -263.41)"/><path d="M862.74,404.22q1.9,1.57,1.91,5.22v13.07h-5.2v-11.8a5.27,5.27,0,0,0-.41-2.35,2.84,2.84,0,0,0-2.82-1.5,3.51,3.51,0,0,0-3.52,2.19,7.59,7.59,0,0,0-.49,3v10.5h-5.08V403.14h4.92V406a8.51,8.51,0,0,1,1.84-2.15,6.41,6.41,0,0,1,4-1.18A7.43,7.43,0,0,1,862.74,404.22Z" transform="translate(-47.49 -263.41)"/><rect x="588.51" y="0.59" width="12" height="159"/><rect x="452" y="40" width="12" height="814" transform="translate(-36.49 641.59) rotate(-90)"/></svg>