<svg version="1.1" id="Logo" xmlns="http://www.w3.org/2000/svg" xmlns:xlink="http://www.w3.org/1999/xlink" x="0px" y="0px" viewBox="0 0 718.6 133.4" enable-background="new 0 0 718.6 133.4" xml:space="preserve">
    <polygon id="Red" fill="#cc2222" points="97.9,0 0,133.4 618.6,133.4 718.6,0 "></polygon>
    <g id="ATP">
        <path fill="#FFFFFF" d="M614.7,7.1l-105.2,0l-84.4,113.7h-68.4l57-76.8l47.9,0L489,7.6L320.3,7.5l-27.7,35.8l54.7,0l-57.4,77.4
        h-18.6L286.8,7.5l-78.8,0L18.8,124.7l75.8,0l22.7-15.5l77.1,0l-4.6,15.5l68.5,0v0h146.3l0,0l85.2,0l27.4-37.1l33.5,0
        c62.7,0,93.4-15.4,114.2-40.6C684.6,23.1,677.5,7.1,614.7,7.1z M202.7,84.9l-48.9,0l61.4-42L202.7,84.9z M595.7,48.5
        c-8.3,10.1-12.2,12-28.9,12l-29.7,0l20.2-26l21.6,0C594,34.4,604.6,37.6,595.7,48.5z"></path>
    </g>
    <path id="T" fill="#FFFFFF" d="M688.1,9.7h2.3v-1h-6.3v1h2.3v4.7h1.6V9.7z"></path>
    <path id="M" fill="#FFFFFF" d="M698.8,14.4h-1.5V9.6h0l-1.4,4.8h-1.6l-1.4-4.8h0v4.8h-1.5V8.7h2.4l1.4,4.5h0l1.4-4.5h2.3V14.4z"></path>
</svg>